<?xml version="1.0" encoding="utf-8"?>
<!-- Generator: Adobe Illustrator 25.0.1, SVG Export Plug-In . SVG Version: 6.00 Build 0)  -->
<svg version="1.1" id="Camada_1" xmlns="http://www.w3.org/2000/svg" xmlns:xlink="http://www.w3.org/1999/xlink" x="0px" y="0px"
	 viewBox="0 0 300 179.6" style="enable-background:new 0 0 300 179.6;" xml:space="preserve">
<style type="text/css">
	.st0{fill:#E6B5A8;}
	.st1{fill-rule:evenodd;clip-rule:evenodd;fill:#E6B5A8;}
	.st2{fill-rule:evenodd;clip-rule:evenodd;fill:#FFFFFF;}
</style>
<g>
	<path class="st0" d="M83.6,156.1c0-0.4,0.1-0.7,0.4-1c0.3-0.3,0.6-0.4,0.9-0.4h4.2v0c1.5,0,2.8,0.3,4.1,0.8
		c1.3,0.6,2.4,1.3,3.4,2.3c1,1,1.7,2.1,2.3,3.4c0.6,1.3,0.8,2.7,0.8,4.1s-0.3,2.8-0.8,4.1c-0.6,1.3-1.3,2.4-2.3,3.4
		c-1,1-2.1,1.7-3.4,2.3c-1.3,0.6-2.7,0.8-4.1,0.8h-4.2c-0.4,0-0.7-0.1-0.9-0.4c-0.3-0.3-0.4-0.6-0.4-0.9V156.1L83.6,156.1z
		 M89.1,175.1c1.1,0,2.1-0.3,3.1-0.8c1-0.5,1.8-1.2,2.5-2.1c0.7-0.9,1.3-1.9,1.7-3.1c0.4-1.2,0.6-2.4,0.6-3.8c0-1.3-0.2-2.6-0.6-3.8
		c-0.4-1.2-1-2.2-1.7-3.1c-0.7-0.9-1.6-1.6-2.5-2.1c-1-0.5-2-0.8-3.1-0.8h-2.9v0.4v18.6v0.4H89.1L89.1,175.1z M108.9,156.1
		c0-0.4,0.1-0.7,0.4-1c0.3-0.3,0.6-0.4,0.9-0.4c0.4,0,0.7,0.1,1,0.4c0.3,0.3,0.4,0.6,0.4,1v18.6c0,0.4-0.1,0.7-0.4,0.9
		c-0.3,0.3-0.6,0.4-1,0.4c-0.4,0-0.7-0.1-0.9-0.4c-0.3-0.3-0.4-0.6-0.4-0.9V156.1L108.9,156.1z M136.9,166.2c0-0.4,0.1-0.7,0.4-1
		c0.3-0.3,0.6-0.4,1-0.4c0.4,0,0.7,0.1,1,0.4c0.3,0.3,0.4,0.6,0.4,1v6.8c-1,1-2.2,1.8-3.5,2.4c-1.3,0.6-2.7,0.9-4.3,0.9
		c-1.5,0-2.9-0.3-4.3-0.9c-1.3-0.6-2.5-1.4-3.5-2.4c-1-1-1.8-2.2-2.3-3.5c-0.6-1.3-0.9-2.7-0.9-4.3c0-1.5,0.3-2.9,0.9-4.3
		c0.6-1.3,1.4-2.5,2.3-3.5c1-1,2.2-1.8,3.5-2.3c1.3-0.6,2.8-0.9,4.3-0.9c1.3,0,2.5,0.2,3.7,0.6c1.2,0.4,2.2,1,3.2,1.8
		c0.1,0.1,0.2,0.2,0.2,0.3c0,0.3-0.1,0.4-0.4,0.4c-0.1,0-0.2,0-0.2,0c-1.8-1.5-3.9-2.2-6.3-2.3h-0.1c-1.1,0-2.2,0.3-3.2,0.8
		c-1,0.5-1.9,1.2-2.6,2.2c-0.7,0.9-1.3,2-1.8,3.2c-0.4,1.2-0.7,2.5-0.7,3.9c0,1.4,0.2,2.7,0.7,3.9c0.4,1.2,1,2.3,1.8,3.2
		c0.7,0.9,1.6,1.6,2.6,2.1c1,0.5,2.1,0.8,3.2,0.8h0c0.9,0,1.8-0.1,2.6-0.3c0.8-0.2,1.6-0.6,2.4-1V166.2L136.9,166.2z M148.9,156.1
		c0-0.4,0.1-0.7,0.4-1c0.3-0.3,0.6-0.4,0.9-0.4c0.4,0,0.7,0.1,1,0.4c0.3,0.3,0.4,0.6,0.4,1v18.6c0,0.4-0.1,0.7-0.4,0.9
		c-0.3,0.3-0.6,0.4-1,0.4c-0.4,0-0.7-0.1-0.9-0.4c-0.3-0.3-0.4-0.6-0.4-0.9V156.1L148.9,156.1z M167.4,155.6h-5.9
		c-0.3,0-0.4-0.1-0.4-0.4s0.1-0.4,0.4-0.4h5.9h2.6h5.9h0c0.3,0,0.4,0.1,0.4,0.4s-0.1,0.4-0.4,0.4h0H170v19c0,0.4-0.1,0.7-0.4,0.9
		c-0.2,0.3-0.6,0.4-0.9,0.4c-0.4,0-0.7-0.1-1-0.4c-0.3-0.3-0.4-0.6-0.4-0.9V155.6L167.4,155.6z M191.4,155.7l6.7,18.5c0,0,0,0,0,0
		c0,0.1,0,0.2,0,0.4c0,0.4-0.1,0.7-0.4,0.9c-0.2,0.3-0.6,0.4-0.9,0.4c-0.3,0-0.6-0.1-0.8-0.2c-0.2-0.2-0.4-0.4-0.5-0.7l-2.3-6.3H185
		l-2.5,6.9c-0.1,0.2-0.2,0.3-0.4,0.3c-0.3,0-0.4-0.1-0.4-0.4c0-0.1,0-0.1,0-0.1v0l7.2-19.6c0.1-0.3,0.2-0.5,0.4-0.7
		c0.2-0.2,0.5-0.3,0.8-0.3c0.3,0,0.6,0.1,0.8,0.3C191.1,155.2,191.3,155.4,191.4,155.7L191.4,155.7L191.4,155.7z M189.2,157.4
		l-3.9,10.6h7.7L189.2,157.4L189.2,157.4z M218.6,175.1c0.3,0,0.4,0.1,0.4,0.4c0,0.3-0.1,0.4-0.4,0.4h-8.8h-0.8h-0.5h0
		c-0.4,0-0.7-0.1-0.9-0.4c-0.3-0.3-0.4-0.6-0.4-0.9v-18.6c0-0.4,0.1-0.7,0.4-1c0.3-0.3,0.6-0.4,0.9-0.4c0.4,0,0.7,0.1,1,0.4
		c0.3,0.3,0.4,0.6,0.4,1v16.5v2.1v0.4H218.6L218.6,175.1z"/>
	<path class="st1" d="M280,90.3c1.9,1.1,3.7,2.3,5.3,3.7c1.6,1.4,3.1,2.9,4.5,4.7c1.3,1.7,2.5,3.5,3.5,5.5c1,1.9,1.8,4,2.5,6.1
		c0.7,2.1,1.1,4.3,1.3,6.6c0.2,2.3,0.2,4.6,0,7c-0.2,2.4-0.6,4.7-1.3,6.9c-0.6,2.2-1.5,4.3-2.5,6.3c-1.1,2-2.3,3.9-3.6,5.6
		c-1.3,1.7-2.8,3.3-4.5,4.7c-1.6,1.4-3.4,2.7-5.3,3.7C273.1,154.8,309.8,130.5,280,90.3L280,90.3z"/>
	<path class="st1" d="M266.3,98c1.5,0.8,2.8,1.8,4.1,2.8c1.2,1.1,2.4,2.2,3.4,3.5c1,1.3,1.9,2.7,2.7,4.2c0.8,1.5,1.4,3,1.9,4.6
		c0.5,1.6,0.8,3.3,1,5c0.2,1.7,0.2,3.5,0,5.3c-0.2,1.8-0.5,3.6-1,5.2c-0.5,1.7-1.1,3.3-1.9,4.8c-0.8,1.5-1.7,2.9-2.7,4.2
		c-1,1.3-2.2,2.5-3.4,3.6c-1.2,1.1-2.6,2-4,2.8C261,147.1,289,128.6,266.3,98L266.3,98z"/>
	<path class="st1" d="M260.5,107.4c0.9,0.5,1.7,1.1,2.5,1.7c0.8,0.7,1.5,1.4,2.1,2.2c0.6,0.8,1.2,1.7,1.7,2.6
		c0.5,0.9,0.9,1.9,1.2,2.9c0.3,1,0.5,2,0.6,3.1c0.1,1.1,0.1,2.1,0,3.3c-0.1,1.1-0.3,2.2-0.6,3.2c-0.3,1-0.7,2-1.2,2.9
		c-0.5,0.9-1.1,1.8-1.7,2.6c-0.6,0.8-1.3,1.5-2.1,2.2c-0.8,0.7-1.6,1.2-2.5,1.7C257.3,137.6,274.5,126.3,260.5,107.4L260.5,107.4z"
		/>
	<path class="st2" d="M4.5,51.7v32.2c0,0.3-0.1,0.5-0.2,0.7c-0.2,0.2-0.4,0.2-0.7,0.2c-0.6,0-0.9-0.3-0.9-0.9V48.3
		c0-1,0.4-1.8,1.2-2.3c0.6-0.4,1.2-0.5,1.8-0.3C6,45.8,6.3,46,6.6,46.1c0.3,0.2,0.5,0.4,0.7,0.7l22.1,32V46.6c0-0.3,0.1-0.5,0.2-0.7
		c0.1-0.2,0.4-0.2,0.6-0.2c0.6,0,0.9,0.3,0.9,0.9v35.8c0,0.9-0.4,1.6-1.2,2.1l0,0c-0.3,0.2-0.6,0.3-0.9,0.3c-0.3,0-0.6,0-1-0.1
		c-0.3-0.1-0.6-0.2-0.9-0.4c-0.3-0.2-0.5-0.4-0.7-0.7L4.5,51.7L4.5,51.7z M22.6,97.9c1.3,0,2.6,0.1,3.9,0.4c1.2,0.2,2.4,0.6,3.6,1.1
		c1.1,0.5,2.2,1,3.3,1.7c1,0.7,2,1.4,2.9,2.2l0.4,0.4h0.1l0,0.1c0.1,0.1,0.1,0.3,0.2,0.4c0,0.1,0.1,0.2,0.1,0.4
		c0,0.6-0.3,0.9-0.9,0.9c-0.4,0-0.7-0.1-0.8-0.4c-0.8-0.8-1.7-1.5-2.6-2.1c-0.9-0.6-1.9-1.2-3-1.6c-1-0.5-2.1-0.8-3.3-1
		c-1.1-0.2-2.3-0.4-3.6-0.4h-0.1c-1,0-2,0.1-3,0.4c-1,0.2-1.9,0.6-2.8,1.1c-0.9,0.5-1.7,1.1-2.5,1.7c-0.8,0.7-1.5,1.4-2.2,2.2
		c-0.7,0.8-1.3,1.7-1.8,2.7c-0.5,1-1,2-1.4,3.1c-0.4,1.1-0.7,2.3-0.9,3.5c-0.2,1.2-0.3,2.4-0.3,3.7c0,1.3,0.1,2.5,0.3,3.7
		c0.2,1.2,0.5,2.3,0.9,3.5c0.4,1.1,0.9,2.2,1.4,3.1c0.5,1,1.1,1.9,1.8,2.7c0.7,0.8,1.4,1.5,2.2,2.2c0.8,0.6,1.6,1.2,2.5,1.7
		c0.9,0.5,1.8,0.8,2.8,1.1c1,0.2,1.9,0.4,3,0.4h0.1c1.2,0,2.5-0.1,3.6-0.4c1.2-0.2,2.3-0.6,3.4-1.1c1.1-0.5,2.1-1,3-1.7
		c0.9-0.7,1.8-1.4,2.6-2.2c0.1-0.1,0.2-0.2,0.3-0.2c0.1,0,0.2-0.1,0.4-0.1c0.3,0,0.5,0.1,0.7,0.2c0.2,0.2,0.2,0.4,0.2,0.7
		c0,0.1,0,0.3-0.1,0.4c0,0.1-0.1,0.2-0.2,0.3c-0.9,0.9-1.9,1.8-3,2.5c-1.1,0.7-2.2,1.4-3.4,1.9c-1.2,0.5-2.4,0.9-3.7,1.2
		c-1.3,0.3-2.6,0.4-4,0.4c-2.8,0-5.4-0.5-7.8-1.6c-1.2-0.5-2.3-1.2-3.4-1.9c-1.1-0.7-2-1.6-2.9-2.5c-0.9-0.9-1.7-1.9-2.4-3
		c-0.7-1.1-1.3-2.2-1.8-3.4c-0.5-1.2-0.9-2.5-1.2-3.8c-0.3-1.3-0.4-2.7-0.4-4.1c0-1.4,0.1-2.8,0.4-4.1c0.3-1.3,0.6-2.6,1.2-3.8
		c0.5-1.2,1.1-2.4,1.8-3.5c0.7-1.1,1.5-2.1,2.4-3c0.9-0.9,1.9-1.7,2.9-2.5c1.1-0.7,2.2-1.3,3.4-1.9c1.2-0.5,2.5-0.9,3.8-1.2
		C19.9,98,21.2,97.9,22.6,97.9L22.6,97.9z M36,56.4c0-0.3,0-0.6,0.1-0.8c0.1-0.2,0.2-0.5,0.4-0.7c0.2-0.2,0.4-0.3,0.6-0.4
		c0.2-0.1,0.5-0.1,0.7-0.1h15c0.2,0,0.4,0.1,0.6,0.2c0.1,0.1,0.2,0.3,0.2,0.6c0,0.2-0.1,0.4-0.2,0.6c-0.1,0.1-0.3,0.2-0.6,0.2H40v13
		h10.1c0.2,0,0.4,0.1,0.5,0.2c0.1,0.1,0.2,0.3,0.2,0.6c0,0.2-0.1,0.4-0.2,0.6c-0.1,0.1-0.3,0.2-0.5,0.2H40v12.9h12.9
		c0.2,0,0.4,0.1,0.6,0.2c0.1,0.1,0.2,0.3,0.2,0.6c0,0.2-0.1,0.4-0.2,0.6c-0.1,0.1-0.3,0.2-0.6,0.2H38c-0.3,0-0.5-0.1-0.7-0.1
		c-0.2-0.1-0.4-0.2-0.6-0.4c-0.2-0.2-0.3-0.4-0.4-0.6c-0.1-0.2-0.1-0.5-0.1-0.8V56.4L36,56.4z M77.1,70.9c0-0.3,0.1-0.6,0.2-0.8
		c0.1-0.2,0.3-0.5,0.5-0.7c0.2-0.2,0.4-0.3,0.7-0.4c0.2-0.1,0.5-0.1,0.8-0.1c0.3,0,0.5,0.1,0.8,0.1c0.2,0.1,0.5,0.2,0.7,0.4
		c0.2,0.2,0.3,0.4,0.4,0.7c0.1,0.2,0.1,0.5,0.1,0.8v9.8l0,0c-0.7,0.7-1.5,1.4-2.3,1.9c-0.8,0.6-1.7,1.1-2.6,1.5
		c-0.9,0.4-1.9,0.7-2.9,0.9c-1,0.2-2,0.3-3.1,0.3c-2.2,0-4.2-0.4-6.1-1.2c-0.9-0.4-1.8-0.9-2.6-1.5c-0.8-0.6-1.6-1.2-2.3-1.9
		c-0.7-0.7-1.3-1.5-1.9-2.3c-0.6-0.8-1-1.7-1.4-2.7c-0.4-0.9-0.7-1.9-0.9-3c-0.2-1-0.3-2.1-0.3-3.2c0-1.1,0.1-2.2,0.3-3.2
		c0.2-1,0.5-2,0.9-3c0.4-1,0.9-1.9,1.4-2.7c0.6-0.8,1.2-1.6,1.9-2.3c0.7-0.7,1.5-1.4,2.3-1.9c0.8-0.6,1.7-1,2.6-1.5
		c0.9-0.4,1.9-0.7,2.9-0.9c1-0.2,2.1-0.3,3.1-0.3c0.9,0,1.8,0.1,2.7,0.2c0.9,0.2,1.7,0.4,2.6,0.7c0.8,0.3,1.6,0.7,2.4,1.1
		c0.7,0.4,1.5,0.9,2.1,1.5c0.1,0.1,0.2,0.2,0.2,0.2c0,0.1,0.1,0.2,0.1,0.3c0,0.2-0.1,0.4-0.2,0.6c-0.1,0.1-0.3,0.2-0.6,0.2
		c-0.1,0-0.2,0-0.2,0c-0.1,0-0.1,0-0.2-0.1l0,0c-1.2-1-2.6-1.8-4-2.4c-1.5-0.5-3-0.8-4.7-0.9h-0.1c-0.8,0-1.6,0.1-2.3,0.3
		c-0.7,0.2-1.5,0.5-2.1,0.8c-0.7,0.4-1.3,0.8-1.9,1.3c-0.6,0.5-1.2,1.1-1.7,1.7c-0.5,0.6-1,1.3-1.4,2.1c-0.4,0.8-0.8,1.6-1.1,2.4
		c-0.3,0.9-0.5,1.8-0.7,2.7c-0.2,0.9-0.2,1.9-0.2,2.9c0,1,0.1,1.9,0.2,2.9c0.2,0.9,0.4,1.8,0.7,2.7c0.3,0.9,0.7,1.7,1.1,2.4
		c0.4,0.7,0.9,1.4,1.4,2.1c0.5,0.6,1.1,1.2,1.7,1.7c0.6,0.5,1.3,0.9,1.9,1.3c0.7,0.4,1.4,0.7,2.1,0.8c0.7,0.2,1.5,0.3,2.3,0.3h0.1
		c0.6,0,1.2,0,1.8-0.1c0.6-0.1,1.2-0.2,1.8-0.4c0.6-0.2,1.2-0.4,1.7-0.6c0.5-0.2,1-0.5,1.5-0.7V70.9L77.1,70.9z M100.4,53.9
		c2.1,0,4.1,0.4,6,1.2c0.9,0.4,1.8,0.9,2.7,1.5c0.8,0.6,1.6,1.2,2.3,1.9c0.7,0.7,1.3,1.5,1.9,2.3c0.6,0.8,1,1.7,1.4,2.7
		c0.4,1,0.7,2,0.9,3c0.2,1,0.3,2.1,0.3,3.2c0,1.1-0.1,2.2-0.3,3.2c-0.2,1-0.5,2-0.9,3c-0.4,0.9-0.9,1.8-1.4,2.7
		c-0.6,0.8-1.2,1.6-1.9,2.3c-0.7,0.7-1.5,1.4-2.3,1.9c-0.8,0.6-1.7,1.1-2.7,1.5c-1.9,0.8-3.9,1.2-6,1.2c-2.2,0-4.2-0.4-6.1-1.2
		c-1.9-0.8-3.5-2-4.9-3.4c-0.7-0.7-1.3-1.5-1.9-2.3c-0.6-0.8-1-1.7-1.4-2.7c-0.4-0.9-0.7-1.9-0.9-3c-0.2-1-0.3-2.1-0.3-3.2
		c0-1.1,0.1-2.2,0.3-3.2c0.2-1,0.5-2,0.9-3c0.4-1,0.9-1.9,1.4-2.7c0.6-0.8,1.2-1.6,1.9-2.3c0.7-0.7,1.5-1.4,2.3-1.9
		c0.8-0.6,1.7-1,2.6-1.5c0.9-0.4,1.9-0.7,2.9-0.9C98.3,54,99.4,53.9,100.4,53.9L100.4,53.9z M100.4,55.4c-0.8,0-1.6,0.1-2.3,0.3
		c-0.7,0.2-1.5,0.5-2.1,0.8c-0.7,0.4-1.3,0.8-1.9,1.3c-0.6,0.5-1.2,1.1-1.7,1.7c-0.5,0.6-1,1.3-1.4,2.1c-0.4,0.8-0.8,1.6-1.1,2.4
		c-0.3,0.9-0.5,1.8-0.7,2.7c-0.2,0.9-0.2,1.9-0.2,2.9c0,2,0.3,3.8,0.9,5.5c0.3,0.9,0.7,1.7,1.1,2.4c0.4,0.7,0.9,1.4,1.4,2.1
		c0.5,0.6,1.1,1.2,1.7,1.7c0.6,0.5,1.3,0.9,1.9,1.3c0.7,0.4,1.4,0.7,2.1,0.8c0.7,0.2,1.5,0.3,2.3,0.3c0.8,0,1.6-0.1,2.3-0.3
		c0.7-0.2,1.5-0.5,2.1-0.8c0.7-0.4,1.3-0.8,1.9-1.3c0.6-0.5,1.2-1.1,1.7-1.7c0.5-0.6,1-1.3,1.4-2.1c0.4-0.7,0.8-1.6,1.1-2.4
		c0.3-0.9,0.5-1.8,0.7-2.7c0.2-0.9,0.2-1.9,0.2-2.9c0-2-0.3-3.8-0.9-5.5c-0.3-0.9-0.7-1.7-1.1-2.4c-0.4-0.8-0.9-1.5-1.4-2.1
		c-0.5-0.6-1.1-1.2-1.7-1.7c-0.6-0.5-1.2-0.9-1.9-1.3c-0.7-0.4-1.4-0.7-2.1-0.8C102,55.5,101.2,55.4,100.4,55.4L100.4,55.4z
		 M100,51.5c-0.2-0.1-0.3-0.2-0.5-0.4c-0.1-0.2-0.2-0.4-0.3-0.6c-0.1-0.2-0.1-0.4-0.1-0.6c0-0.2,0.1-0.4,0.2-0.6l1.6-2.7
		c0.1-0.2,0.3-0.3,0.4-0.5c0.2-0.1,0.4-0.2,0.6-0.3c0.2-0.1,0.4-0.1,0.6,0c0.2,0,0.4,0.1,0.6,0.2c0.2,0.1,0.4,0.2,0.5,0.4
		c0.1,0.2,0.2,0.4,0.3,0.6c0.1,0.2,0.1,0.4,0,0.6c0,0.2-0.1,0.4-0.2,0.6l-1.5,2.7c-0.1,0.2-0.2,0.3-0.4,0.5
		c-0.2,0.1-0.4,0.2-0.6,0.3c-0.2,0.1-0.4,0.1-0.6,0C100.4,51.7,100.2,51.7,100,51.5L100,51.5z M134.5,53.9c2.1,0,4,0.4,5.8,1.1
		c1.8,0.7,3.4,1.8,4.8,3l0.3,0.3h0.1l0,0.1c0.1,0.1,0.1,0.2,0.1,0.3c0,0.1,0,0.2,0,0.3c0,0.2-0.1,0.4-0.2,0.6
		c-0.1,0.1-0.3,0.2-0.6,0.2c-0.2,0-0.3,0-0.4-0.1c-0.1-0.1-0.2-0.1-0.3-0.3c-0.6-0.6-1.3-1.2-2-1.6c-0.7-0.5-1.5-0.9-2.3-1.3
		c-0.8-0.4-1.7-0.6-2.6-0.8c-0.9-0.2-1.8-0.3-2.8-0.3h-0.1c-0.8,0-1.6,0.1-2.3,0.3c-0.7,0.2-1.5,0.5-2.1,0.8
		c-0.7,0.4-1.3,0.8-1.9,1.3c-0.6,0.5-1.2,1.1-1.7,1.7c-0.5,0.6-1,1.3-1.4,2.1c-0.4,0.8-0.8,1.6-1.1,2.4c-0.3,0.9-0.5,1.8-0.7,2.7
		c-0.2,0.9-0.2,1.9-0.2,2.9c0,1,0.1,1.9,0.2,2.9c0.2,0.9,0.4,1.8,0.7,2.7c0.3,0.9,0.7,1.7,1.1,2.4c0.4,0.7,0.9,1.4,1.4,2.1
		c0.5,0.6,1.1,1.2,1.7,1.7c0.6,0.5,1.3,0.9,1.9,1.3c0.7,0.4,1.4,0.7,2.1,0.8c0.7,0.2,1.5,0.3,2.3,0.3h0.1c1,0,1.9-0.1,2.8-0.3
		c0.9-0.2,1.8-0.5,2.6-0.8c0.8-0.4,1.6-0.8,2.4-1.3c0.7-0.5,1.4-1.1,2-1.7c0.1-0.1,0.2-0.1,0.2-0.2c0.1,0,0.2-0.1,0.3-0.1
		c0.2,0,0.4,0.1,0.6,0.2c0.1,0.1,0.2,0.3,0.2,0.6c0,0.2-0.1,0.4-0.2,0.6c-0.7,0.7-1.5,1.4-2.3,1.9c-0.8,0.6-1.7,1.1-2.6,1.5
		c-0.9,0.4-1.9,0.7-2.9,0.9c-1,0.2-2,0.3-3.1,0.3c-2.2,0-4.2-0.4-6.1-1.2c-0.9-0.4-1.8-0.9-2.6-1.5c-0.8-0.6-1.6-1.2-2.3-1.9
		c-0.7-0.7-1.3-1.5-1.9-2.3c-0.6-0.8-1-1.7-1.4-2.7c-0.4-0.9-0.7-1.9-0.9-3c-0.2-1-0.3-2.1-0.3-3.2c0-2.2,0.4-4.2,1.2-6.2
		c0.4-1,0.9-1.9,1.4-2.7c0.6-0.8,1.2-1.6,1.9-2.3c0.7-0.7,1.5-1.4,2.3-1.9c0.8-0.6,1.7-1,2.6-1.5c0.9-0.4,1.9-0.7,2.9-0.9
		C132.4,54,133.5,53.9,134.5,53.9L134.5,53.9z M149.3,56.4c0-0.3,0-0.6,0.1-0.8c0.1-0.2,0.2-0.5,0.4-0.7c0.2-0.2,0.4-0.3,0.6-0.4
		c0.2-0.1,0.5-0.1,0.7-0.1c0.3,0,0.5,0,0.8,0.1c0.2,0.1,0.5,0.2,0.7,0.4c0.2,0.2,0.3,0.4,0.4,0.7c0.1,0.2,0.1,0.5,0.1,0.8v26.5
		c0,0.3,0,0.5-0.1,0.8c-0.1,0.2-0.2,0.4-0.4,0.6c-0.2,0.2-0.4,0.3-0.7,0.4c-0.2,0.1-0.5,0.1-0.8,0.1c-0.3,0-0.5-0.1-0.7-0.1
		c-0.2-0.1-0.4-0.2-0.6-0.4c-0.2-0.2-0.3-0.4-0.4-0.6c-0.1-0.2-0.1-0.5-0.1-0.8V56.4L149.3,56.4z M172.5,53.9c2.1,0,4.1,0.4,6,1.2
		c0.9,0.4,1.8,0.9,2.7,1.5c0.8,0.6,1.6,1.2,2.3,1.9c0.7,0.7,1.3,1.5,1.9,2.3c0.6,0.8,1,1.7,1.4,2.7c0.4,1,0.7,2,0.9,3
		c0.2,1,0.3,2.1,0.3,3.2c0,2.2-0.4,4.2-1.2,6.1c-0.4,0.9-0.9,1.8-1.4,2.7c-0.6,0.8-1.2,1.6-1.9,2.3c-0.7,0.7-1.5,1.4-2.3,1.9
		c-0.8,0.6-1.7,1.1-2.7,1.5c-0.9,0.4-1.9,0.7-2.9,0.9c-1,0.2-2,0.3-3.1,0.3c-2.2,0-4.2-0.4-6.1-1.2c-1.9-0.8-3.5-2-4.9-3.4
		c-0.7-0.7-1.3-1.5-1.9-2.3c-0.6-0.8-1-1.7-1.4-2.7c-0.4-0.9-0.7-1.9-0.9-3c-0.2-1-0.3-2.1-0.3-3.2c0-2.2,0.4-4.2,1.2-6.2
		c0.4-1,0.9-1.9,1.4-2.7c0.6-0.8,1.2-1.6,1.9-2.3c0.7-0.7,1.5-1.4,2.3-1.9c0.8-0.6,1.7-1,2.6-1.5c0.9-0.4,1.9-0.7,2.9-0.9
		C170.4,54,171.5,53.9,172.5,53.9L172.5,53.9z M172.5,55.4c-0.8,0-1.6,0.1-2.3,0.3c-0.7,0.2-1.5,0.5-2.1,0.8
		c-0.7,0.4-1.3,0.8-1.9,1.3c-0.6,0.5-1.2,1.1-1.7,1.7c-0.5,0.6-1,1.3-1.4,2.1c-0.4,0.8-0.8,1.6-1.1,2.4c-0.3,0.9-0.5,1.8-0.7,2.7
		c-0.2,0.9-0.2,1.9-0.2,2.9c0,1,0.1,1.9,0.2,2.9c0.2,0.9,0.4,1.8,0.7,2.7c0.3,0.9,0.7,1.7,1.1,2.4c0.4,0.7,0.9,1.4,1.4,2.1
		c0.5,0.6,1.1,1.2,1.7,1.7c0.6,0.5,1.3,0.9,1.9,1.3c0.7,0.4,1.4,0.7,2.1,0.8c0.7,0.2,1.5,0.3,2.3,0.3c0.8,0,1.6-0.1,2.3-0.3
		c0.7-0.2,1.5-0.5,2.1-0.8c0.7-0.4,1.3-0.8,1.9-1.3c0.6-0.5,1.2-1.1,1.7-1.7c0.5-0.6,1-1.3,1.4-2.1c0.4-0.7,0.8-1.6,1.1-2.4
		c0.3-0.9,0.5-1.8,0.7-2.7c0.2-0.9,0.2-1.9,0.2-2.9c0-1-0.1-1.9-0.2-2.9c-0.2-0.9-0.4-1.8-0.7-2.7c-0.3-0.9-0.7-1.7-1.1-2.4
		c-0.4-0.8-0.9-1.5-1.4-2.1c-0.5-0.6-1.1-1.2-1.7-1.7c-0.6-0.5-1.2-0.9-1.9-1.3c-0.7-0.4-1.4-0.7-2.1-0.8
		C174.1,55.5,173.3,55.4,172.5,55.4L172.5,55.4z M201.4,56.4c0-0.3,0-0.6,0.1-0.8c0.1-0.2,0.2-0.5,0.4-0.7c0.2-0.2,0.4-0.3,0.6-0.4
		c0.2-0.1,0.5-0.1,0.7-0.1h6v0.1c1,0,2,0.1,2.9,0.3c1,0.2,1.9,0.5,2.8,0.9c1.8,0.8,3.4,1.9,4.8,3.3c0.7,0.7,1.3,1.4,1.8,2.2
		c0.5,0.8,1,1.7,1.4,2.6c0.4,0.9,0.7,1.9,0.9,2.9c0.2,1,0.3,2,0.3,3.1c0,1.1-0.1,2.1-0.3,3.1c-0.2,1-0.5,2-0.9,2.9
		c-0.4,0.9-0.9,1.8-1.4,2.6c-0.5,0.8-1.2,1.6-1.8,2.2c-0.7,0.7-1.4,1.3-2.2,1.8c-0.8,0.5-1.7,1-2.6,1.4c-0.9,0.4-1.9,0.7-2.8,0.9
		c-1,0.2-2,0.3-3,0.3h-5.9c-0.3,0-0.5-0.1-0.7-0.1c-0.2-0.1-0.4-0.2-0.6-0.4c-0.2-0.2-0.3-0.4-0.4-0.6c-0.1-0.2-0.1-0.5-0.1-0.8
		V56.4L201.4,56.4z M209.3,83.4c1.5,0,2.9-0.4,4.3-1.1c0.7-0.4,1.3-0.8,1.9-1.3c0.6-0.5,1.1-1,1.6-1.7c0.5-0.6,1-1.3,1.3-2
		c0.4-0.7,0.7-1.5,1-2.3c0.3-0.8,0.5-1.7,0.7-2.6c0.1-0.9,0.2-1.8,0.2-2.8c0-0.9-0.1-1.9-0.2-2.8c-0.1-0.9-0.4-1.8-0.7-2.6
		c-0.3-0.8-0.6-1.6-1-2.4c-0.4-0.7-0.8-1.4-1.3-2c-0.5-0.6-1-1.2-1.6-1.7c-0.6-0.5-1.2-0.9-1.9-1.3c-0.7-0.4-1.4-0.6-2.1-0.8
		c-0.7-0.2-1.4-0.3-2.2-0.3h-3.9v27.5H209.3L209.3,83.4z M227.8,56.4c0-0.3,0-0.6,0.1-0.8c0.1-0.2,0.2-0.5,0.4-0.7
		c0.2-0.2,0.4-0.3,0.6-0.4c0.2-0.1,0.5-0.1,0.7-0.1h15c0.2,0,0.4,0.1,0.6,0.2c0.1,0.1,0.2,0.3,0.2,0.6c0,0.2-0.1,0.4-0.2,0.6
		c-0.1,0.1-0.3,0.2-0.6,0.2h-12.9v13h10.1c0.2,0,0.4,0.1,0.5,0.2c0.1,0.1,0.2,0.3,0.2,0.6c0,0.5-0.2,0.8-0.7,0.8h-10.1v12.9h12.9
		c0.2,0,0.4,0.1,0.6,0.2c0.1,0.1,0.2,0.3,0.2,0.6c0,0.2-0.1,0.4-0.2,0.6c-0.1,0.1-0.3,0.2-0.6,0.2h-15c-0.3,0-0.5-0.1-0.7-0.1
		c-0.2-0.1-0.4-0.2-0.6-0.4c-0.2-0.2-0.3-0.4-0.4-0.6c-0.1-0.2-0.1-0.5-0.1-0.8V56.4L227.8,56.4z M55.5,108.6l9.4,26.4L65,135l0,0
		c0,0.1,0,0.2,0,0.3c0,0.1,0,0.2,0,0.4c0,0.3,0,0.5-0.1,0.8c-0.1,0.2-0.2,0.4-0.4,0.6c-0.2,0.2-0.4,0.3-0.6,0.4
		c-0.2,0.1-0.5,0.1-0.8,0.1c-0.4,0-0.8-0.1-1.2-0.4c-0.2-0.1-0.3-0.3-0.4-0.4c-0.1-0.2-0.2-0.3-0.3-0.6l-3.2-8.9H46.5l-3.5,9.7
		c0,0.2-0.1,0.3-0.2,0.4c-0.1,0.1-0.3,0.1-0.4,0.1c-0.2,0-0.4-0.1-0.6-0.2c-0.1-0.1-0.2-0.3-0.2-0.6c0-0.1,0-0.1,0-0.1
		c0,0,0-0.1,0-0.1v0l10.1-28c0-0.2,0.1-0.4,0.2-0.6c0.1-0.2,0.3-0.4,0.4-0.5c0.2-0.1,0.4-0.3,0.6-0.3c0.2-0.1,0.4-0.1,0.6-0.1
		c0.2,0,0.4,0,0.6,0.1c0.2,0.1,0.4,0.2,0.5,0.3c0.2,0.1,0.3,0.3,0.4,0.4C55.3,108.2,55.4,108.3,55.5,108.6L55.5,108.6L55.5,108.6
		L55.5,108.6z M52.3,111.4L47,126h10.5L52.3,111.4L52.3,111.4z M90.6,131.9c-0.2,0.6-0.4,1.1-0.7,1.6c-0.3,0.5-0.6,1-1.1,1.4
		c-0.4,0.4-0.9,0.8-1.3,1.1c-0.5,0.3-1,0.6-1.5,0.9c-0.5,0.2-1.1,0.5-1.7,0.6c-0.6,0.2-1.2,0.3-1.7,0.4c-0.6,0.1-1.2,0.2-1.7,0.2
		c-0.6,0.1-1.1,0.1-1.6,0.1c-0.9,0-1.7-0.1-2.5-0.2c-0.8-0.1-1.6-0.3-2.4-0.5c-0.2-0.1-0.5-0.1-0.8-0.3c-0.3-0.1-0.7-0.3-1.1-0.4
		c-0.4-0.2-0.8-0.3-1.2-0.5c-0.4-0.2-0.8-0.4-1.1-0.6c-0.4-0.2-0.7-0.4-1.1-0.7c-0.3-0.2-0.6-0.5-0.9-0.7c-0.3-0.2-0.5-0.5-0.6-0.7
		c-0.2-0.2-0.2-0.5-0.2-0.7c0-0.1,0-0.3,0.1-0.4c0-0.1,0.1-0.2,0.2-0.3c0.1-0.1,0.2-0.2,0.3-0.2c0.1-0.1,0.3-0.1,0.4-0.1
		c0.2,0,0.4,0.1,0.6,0.3l0,0c0.7,0.7,1.5,1.2,2.3,1.8c0.8,0.5,1.7,1,2.5,1.3c0.9,0.4,1.8,0.7,2.7,0.8c0.9,0.2,1.9,0.3,2.8,0.3
		c0.4,0,0.8,0,1.2-0.1c0.4,0,0.8-0.1,1.3-0.2c0.4-0.1,0.8-0.2,1.2-0.3c0.4-0.1,0.7-0.3,1.1-0.5c0.3-0.2,0.7-0.4,0.9-0.7
		c0.3-0.3,0.5-0.6,0.7-0.9c0.4-0.7,0.7-1.7,0.7-2.8v0c0-0.4-0.1-0.8-0.2-1.1c-0.1-0.3-0.2-0.6-0.4-0.9c-0.2-0.3-0.3-0.5-0.5-0.8
		c-0.2-0.2-0.4-0.5-0.6-0.7c-0.2-0.2-0.5-0.4-0.7-0.6c-0.3-0.2-0.5-0.3-0.8-0.5c-0.3-0.2-0.6-0.3-0.9-0.4c-0.3-0.1-0.6-0.3-0.9-0.4
		c-0.6-0.3-1.2-0.5-1.9-0.8c-0.7-0.3-1.4-0.6-2.2-0.8c-0.8-0.3-1.5-0.6-2.2-0.9c-0.7-0.3-1.4-0.7-2.1-1.1c-0.7-0.4-1.3-0.8-1.9-1.3
		c-0.6-0.5-1.1-1-1.5-1.5c-0.5-0.6-0.8-1.2-1.1-1.8c-0.2-0.7-0.4-1.4-0.4-2.2c0-0.8,0.1-1.5,0.2-2.2c0.2-0.7,0.4-1.3,0.7-1.8
		c0.3-0.5,0.7-1,1.1-1.5c0.4-0.4,0.9-0.8,1.4-1.1c0.5-0.3,1.1-0.6,1.7-0.8c0.6-0.2,1.2-0.4,1.9-0.6c0.7-0.1,1.3-0.2,2-0.3
		c0.7-0.1,1.3-0.1,2-0.1c0.3,0,0.7,0,1.2,0.1c0.4,0,1,0.1,1.5,0.2c0.6,0.1,1.1,0.2,1.7,0.3c0.5,0.1,1.1,0.2,1.6,0.4
		c0.5,0.1,1,0.3,1.5,0.5c0.5,0.2,0.9,0.4,1.3,0.6c0.4,0.2,0.7,0.4,0.9,0.7c0.2,0.3,0.3,0.5,0.3,0.8c0,0.1,0,0.3-0.1,0.4
		c0,0.1-0.1,0.2-0.2,0.3c-0.1,0.1-0.2,0.2-0.3,0.2c-0.1,0.1-0.2,0.1-0.4,0.1c-0.1,0-0.2,0-0.3-0.1c-0.1,0-0.2-0.1-0.3-0.1
		c-0.5-0.4-1.1-0.7-1.8-1c-0.6-0.3-1.3-0.6-2-0.8c-0.7-0.2-1.5-0.4-2.2-0.5c-0.8-0.1-1.6-0.2-2.4-0.2c-0.8,0-1.5,0.1-2.4,0.3
		c-0.4,0.1-0.8,0.2-1.2,0.3c-0.4,0.1-0.7,0.3-1,0.5c-0.3,0.2-0.6,0.4-0.9,0.7s-0.5,0.5-0.7,0.8c-0.2,0.3-0.4,0.6-0.5,1
		c-0.1,0.4-0.2,0.8-0.2,1.2c0,0.6,0.1,1.1,0.2,1.6c0.1,0.5,0.3,1,0.6,1.5c0.2,0.4,0.5,0.7,0.9,1c0.4,0.3,0.8,0.6,1.3,0.9
		c0.5,0.3,1,0.5,1.6,0.8c0.6,0.3,1.2,0.5,1.8,0.7l2,0.7l2,0.8c0.7,0.3,1.4,0.6,2,0.9c0.6,0.3,1.2,0.7,1.8,1.1
		c0.6,0.4,1.1,0.8,1.6,1.3c0.5,0.5,0.9,1,1.3,1.6c0.4,0.6,0.6,1.2,0.8,1.9c0.2,0.7,0.3,1.5,0.3,2.3c0,0.3,0,0.6,0,0.8
		C90.7,131.4,90.6,131.7,90.6,131.9L90.6,131.9z M86.5,131.1L86.5,131.1L86.5,131.1L86.5,131.1z M106.4,108.6l9.4,26.4l0.1,0.1l0,0
		c0,0.1,0,0.2,0,0.3c0,0.1,0,0.2,0,0.4c0,0.3,0,0.5-0.1,0.8c-0.1,0.2-0.2,0.4-0.4,0.6c-0.2,0.2-0.4,0.3-0.6,0.4
		c-0.2,0.1-0.5,0.1-0.8,0.1c-0.4,0-0.8-0.1-1.2-0.4c-0.2-0.1-0.3-0.3-0.4-0.4c-0.1-0.2-0.2-0.3-0.3-0.6l-3.2-8.9H97.3l-3.5,9.7
		c0,0.2-0.1,0.3-0.2,0.4c-0.1,0.1-0.3,0.1-0.4,0.1c-0.2,0-0.4-0.1-0.6-0.2c-0.1-0.1-0.2-0.3-0.2-0.6c0-0.1,0-0.1,0-0.1
		c0,0,0-0.1,0-0.1v0l10.1-28c0-0.2,0.1-0.4,0.2-0.6c0.1-0.2,0.3-0.4,0.4-0.5c0.2-0.1,0.4-0.3,0.6-0.3c0.2-0.1,0.4-0.1,0.6-0.1
		c0.2,0,0.4,0,0.6,0.1c0.2,0.1,0.4,0.2,0.5,0.3c0.2,0.1,0.3,0.3,0.4,0.4C106.2,108.2,106.3,108.3,106.4,108.6L106.4,108.6
		L106.4,108.6L106.4,108.6z M103.2,111.4L97.9,126h10.5L103.2,111.4L103.2,111.4z M119,109.2c0-0.3,0-0.6,0.1-0.8
		c0.1-0.2,0.2-0.5,0.4-0.7c0.2-0.2,0.4-0.3,0.6-0.4c0.2-0.1,0.5-0.1,0.7-0.1c0.4,0,0.7,0.1,1,0.3c0.3,0.2,0.5,0.4,0.7,0.8l10.7,18.8
		l10.7-18.8c0.2-0.3,0.4-0.6,0.7-0.8c0.3-0.2,0.6-0.3,1-0.3c0.3,0,0.5,0,0.8,0.1c0.2,0.1,0.5,0.2,0.7,0.4c0.2,0.2,0.3,0.4,0.4,0.7
		c0.1,0.2,0.1,0.5,0.1,0.8v26.5c0,0.3,0,0.5-0.1,0.8c-0.1,0.2-0.2,0.4-0.4,0.6c-0.2,0.2-0.4,0.3-0.7,0.4c-0.2,0.1-0.5,0.1-0.8,0.1
		c-0.3,0-0.5-0.1-0.8-0.1c-0.2-0.1-0.4-0.2-0.6-0.4c-0.2-0.2-0.3-0.4-0.4-0.6c-0.1-0.2-0.1-0.5-0.1-0.8v-24l-7.7,13.5l-2.4,4.2
		c-0.1,0.2-0.2,0.3-0.3,0.4c-0.1,0.1-0.3,0.2-0.4,0.3c-0.2,0.1-0.5,0.2-0.7,0.3c-0.3,0-0.5,0-0.8-0.1c-0.3-0.1-0.5-0.2-0.7-0.3
		c-0.2-0.2-0.4-0.4-0.5-0.6l-9.7-17.1v24.6c0,0.2-0.1,0.4-0.2,0.6c-0.1,0.1-0.3,0.2-0.6,0.2c-0.2,0-0.4-0.1-0.6-0.2
		c-0.1-0.1-0.2-0.3-0.2-0.6V109.2L119,109.2z M151.5,109.2c0-0.3,0-0.6,0.1-0.8c0.1-0.2,0.2-0.5,0.4-0.7c0.2-0.2,0.4-0.3,0.6-0.4
		c0.2-0.1,0.5-0.1,0.7-0.1h15c0.2,0,0.4,0.1,0.6,0.2c0.1,0.1,0.2,0.3,0.2,0.6c0,0.5-0.3,0.8-0.8,0.8h-12.9v13h10.1
		c0.2,0,0.4,0.1,0.5,0.2c0.1,0.1,0.2,0.3,0.2,0.6c0,0.2-0.1,0.4-0.2,0.6c-0.1,0.1-0.3,0.2-0.5,0.2h-10.1v12.9h12.9
		c0.2,0,0.4,0.1,0.6,0.2c0.1,0.1,0.2,0.3,0.2,0.6c0,0.5-0.3,0.8-0.8,0.8h-15c-0.3,0-0.5-0.1-0.7-0.1c-0.2-0.1-0.4-0.2-0.6-0.4
		c-0.2-0.2-0.3-0.4-0.4-0.6c-0.1-0.2-0.1-0.5-0.1-0.8V109.2L151.5,109.2z M174,112v24.9c0,0.5-0.3,0.8-0.8,0.8
		c-0.2,0-0.4-0.1-0.6-0.2c-0.1-0.1-0.2-0.3-0.2-0.6v-27.7c0-0.4,0.1-0.8,0.2-1.1c0.2-0.3,0.4-0.5,0.7-0.7c0.2-0.1,0.5-0.2,0.7-0.3
		c0.2,0,0.5,0,0.7,0c0.3,0.1,0.5,0.2,0.7,0.3c0.2,0.1,0.4,0.3,0.6,0.6l17.1,24.8v-24.9c0-0.2,0.1-0.4,0.2-0.6
		c0.1-0.1,0.3-0.2,0.5-0.2c0.2,0,0.4,0.1,0.6,0.2c0.1,0.1,0.2,0.3,0.2,0.6v27.9c0,0.7-0.3,1.3-1,1.7l0,0c-0.2,0.1-0.5,0.2-0.7,0.2
		c-0.2,0-0.5,0-0.8,0c-0.3-0.1-0.5-0.2-0.7-0.3c-0.2-0.1-0.4-0.3-0.5-0.6L174,112L174,112z M207.4,108.7h-8.2
		c-0.2,0-0.4-0.1-0.6-0.2c-0.1-0.1-0.2-0.3-0.2-0.6c0-0.2,0.1-0.4,0.2-0.6c0.1-0.1,0.3-0.2,0.6-0.2h20.5c0.2,0,0.4,0.1,0.6,0.2
		c0.1,0.1,0.2,0.3,0.2,0.6c0,0.2-0.1,0.4-0.2,0.6c-0.1,0.1-0.3,0.2-0.6,0.2h-8.3v27c0,0.3,0,0.5-0.1,0.8c-0.1,0.2-0.2,0.4-0.4,0.6
		c-0.2,0.2-0.4,0.3-0.6,0.4c-0.2,0.1-0.5,0.1-0.8,0.1c-0.3,0-0.5-0.1-0.8-0.1c-0.2-0.1-0.5-0.2-0.7-0.4c-0.2-0.2-0.3-0.4-0.4-0.6
		c-0.1-0.2-0.1-0.5-0.1-0.8V108.7L207.4,108.7z M235.9,106.7c2.1,0,4.1,0.4,6,1.2c0.9,0.4,1.8,0.9,2.7,1.5c0.8,0.6,1.6,1.2,2.3,1.9
		c0.7,0.7,1.3,1.5,1.9,2.3c0.6,0.8,1,1.7,1.4,2.7c0.4,1,0.7,2,0.9,3c0.2,1,0.3,2.1,0.3,3.2c0,1.1-0.1,2.2-0.3,3.2
		c-0.2,1-0.5,2-0.9,3c-0.4,0.9-0.9,1.8-1.4,2.7c-0.6,0.8-1.2,1.6-1.9,2.3c-0.7,0.7-1.5,1.4-2.3,1.9c-0.8,0.6-1.7,1.1-2.7,1.5
		c-1.9,0.8-3.9,1.2-6,1.2c-2.2,0-4.2-0.4-6.1-1.2c-1.9-0.8-3.5-2-4.9-3.4c-0.7-0.7-1.3-1.5-1.9-2.3c-0.6-0.8-1-1.7-1.4-2.7
		c-0.4-0.9-0.7-1.9-0.9-3c-0.2-1-0.3-2.1-0.3-3.2c0-1.1,0.1-2.2,0.3-3.2c0.2-1,0.5-2,0.9-3c0.4-1,0.9-1.9,1.4-2.7
		c0.6-0.8,1.2-1.6,1.9-2.3c0.7-0.7,1.5-1.4,2.3-1.9c0.8-0.6,1.7-1,2.6-1.5c0.9-0.4,1.9-0.7,2.9-0.9
		C233.8,106.8,234.8,106.7,235.9,106.7L235.9,106.7z M235.9,108.2c-0.8,0-1.6,0.1-2.3,0.3c-0.7,0.2-1.5,0.5-2.1,0.8
		c-0.7,0.4-1.3,0.8-1.9,1.3c-0.6,0.5-1.2,1.1-1.7,1.7c-0.5,0.6-1,1.3-1.4,2.1c-0.4,0.8-0.8,1.6-1.1,2.4c-0.3,0.9-0.5,1.8-0.7,2.7
		c-0.2,0.9-0.2,1.9-0.2,2.9c0,2,0.3,3.8,0.9,5.5c0.3,0.9,0.7,1.7,1.1,2.4c0.4,0.7,0.9,1.4,1.4,2.1c0.5,0.6,1.1,1.2,1.7,1.7
		c0.6,0.5,1.3,0.9,1.9,1.3c0.7,0.4,1.4,0.7,2.1,0.8c0.7,0.2,1.5,0.3,2.3,0.3c0.8,0,1.6-0.1,2.3-0.3c0.7-0.2,1.5-0.5,2.1-0.8
		c0.7-0.4,1.3-0.8,1.9-1.3c0.6-0.5,1.2-1.1,1.7-1.7c0.5-0.6,1-1.3,1.4-2.1c0.4-0.8,0.8-1.6,1.1-2.4c0.3-0.9,0.5-1.8,0.7-2.7
		c0.2-0.9,0.2-1.9,0.2-2.9c0-2-0.3-3.8-0.9-5.5c-0.3-0.9-0.7-1.7-1.1-2.4c-0.4-0.8-0.9-1.5-1.4-2.1c-0.5-0.6-1.1-1.2-1.7-1.7
		c-0.6-0.5-1.2-0.9-1.9-1.3c-0.7-0.4-1.4-0.7-2.1-0.8C237.4,108.3,236.7,108.2,235.9,108.2L235.9,108.2z"/>
	<path class="st0" d="M80.9,28.5c-4.3-0.6-9.3-1.9-10.2-5.1c-0.2-0.7-0.3-1.4-0.3-2.2c0-4.4,3.4-8.5,8.5-11.9C81.7,7.4,87,5,91.1,5
		c1.7,0,3.2,0.4,4.3,1.3c0.9,0.8,1.2,2,1.2,3.4c0,2.1-0.8,4.5-2,6.9c-0.5,1.3,0.8,0.8,1.6-0.8c1.1-2.3,2-4.4,2-6.3
		c0-1.5-0.5-2.8-1.7-4C94.7,4,92.4,3.3,90,3.3c-4.1,0-8.7,1.8-12.5,4.2c-4.6,3.1-8.7,7.8-8.7,13c0,1,0.1,2,0.5,3.1
		c1.3,4.1,7,5.5,11.8,6.2c3.4,0.5,8.1,1.1,11,3c-6,2-11.7,4.6-15.2,7.8c-1.7,1.5-2.7,3.1-2.8,4.6c0,3,2.9,3.8,5.6,3.8
		c0.8,0,1.5-0.1,2.2-0.2c7.1-1.2,14.8-5.5,14.8-11.3c0-1.7-0.5-3-1.5-4.1l4.3-1.3l6.1-1.7c0.3-0.1,0.4-0.1,0.1-0.4
		c-0.4-0.3-2.1-0.2-6.7,0.8c-1.7,0.4-3.4,0.8-5.2,1.4C90.4,29.5,84.2,29,80.9,28.5L80.9,28.5z M94.8,37.2
		c-0.3,5.5-7.7,9.2-13.3,10.3c-1,0.2-1.9,0.3-2.7,0.3c-2.1,0-3.4-0.7-3.4-2c0-1,0.8-2.4,2.8-4.1c3-2.6,7.8-5.2,15.3-7.7
		C94.3,34.8,94.8,35.9,94.8,37.2L94.8,37.2z M110.9,35.6c3.4-0.2,6.6-2.6,7.9-5.5c0.7-1.4,0.9-2.5-0.2-1.3
		c-2.1,2.2-5.5,5.6-10.2,5.6c-1.7,0-3.4-1.6-3.6-2.5c1.7,0,3.8-1.2,4.5-2.8c0.5-1.4-0.9-2.9-2.4-2.9c-2.4,0.1-3.9,2.3-3.9,4.5
		c0,0.5,0.1,1,0.2,1.4C104.3,35.2,108,35.8,110.9,35.6L110.9,35.6z M107.7,27.9c0.5,0.5-0.8,1.9-2.9,2.8
		C104.8,29.5,106.7,26.9,107.7,27.9L107.7,27.9z M123.2,34.9c2,0,3.4-1.7,4.4-3.2c0.7,1.6,2.2,2.8,4.1,2.8c3.4,0.2,5.9-2.5,6.9-4
		c0.6-0.9,0.6-2.4,0.2-1.8c-1.6,1.6-4.6,4.2-8,4.4c-1.4-0.1-1.7-1.3-1.9-2.5c0-0.9,0-1.7,0.1-2c0.1-0.7-1.6-1.6-1.8-0.9
		c-0.4,1.8-3.7,7-5.7,5.6c-0.5-0.3-0.7-1.1-0.7-2c0-1.3,0.4-2.7,1.1-3.2c0.2-0.1,0.3-0.4,0-0.8c-0.4-0.4-0.9-0.7-1.3-0.6
		c-0.4,0.1-0.7,0.6-1,1.1c-0.4,0.7-0.5,1.5-0.5,2.3c0,0.6,0.1,1.3,0.3,1.9C119.9,33.6,121.6,34.9,123.2,34.9L123.2,34.9z"/>
</g>
</svg>
