<?xml version="1.0" encoding="utf-8"?>
<!-- Generator: Adobe Illustrator 25.0.1, SVG Export Plug-In . SVG Version: 6.00 Build 0)  -->
<svg version="1.1" id="Camada_1" xmlns="http://www.w3.org/2000/svg" xmlns:xlink="http://www.w3.org/1999/xlink" x="0px" y="0px"
	 viewBox="0 0 300 300" style="enable-background:new 0 0 300 300;" xml:space="preserve">
<style type="text/css">
	.st0{fill:#2E4044;}
</style>
<g>
	<g>
		<path class="st0" d="M284.7,237.6c-10.9-26.3-19.1-55.4-20.1-62.8c-1-7.4-5.6-49.8-15.7-66.7c0.7-3.8,4.6-18.3,4.6-18.3
			c-5.5-3.8-3.2-10.9-3.2-13.6c0-2.7-0.1-5.4-2.6-8.6c-2.5-3.2-1.3-4.8-2.6-7.6c-2.1-4.5-5-5.7-8.7-5.3c-3.7,0.4-11.8-1.2-13.7-6.3
			c2.6,3.4,7.5,5.8,14.3,5.1c7-0.7,9.2,7.1,10.2,11.1c0.7,3,6.9,6.6,4.5,12.6c-2.3,6-1.3,10.3,1.7,12.5c0,0,4.7,2.1,3.4,4.9
			c-1.3,2.8-2.1-1.3-2.1-1.3s0,5.9,5.1,2.3c5.1-3.6-1-10.3-4.4-15c-3.4-4.7,4.6-5.9-1.6-16.2c-6.2-10.3,4.9-9.8-5.2-18.8
			c0,0-1.8-5.2-10.3-5.6c-8.5-0.3-5.2-5.1-5.2-5.1s1.5-2.9-1.1-4.4c1.3-3.4,0.3-9.5-5.6-12.9c-5.9-3.4-10.1-1.6-10.1-1.6
			s-4.1-0.8-4.7,1.3c-6.2,0.3-11.8,6.2-11.8,8.5c-5.4,2.1-3.6,10.5,2.3,16.8c0,0-1.4,0.1-0.6,2.1c-1.9,0.2-1.3,1.5-0.9,2.5
			c0,0-0.8,0.6-0.2,1.7c0.6,1,4.6,8.8,13.4,13.2c0.1,4.6-0.7,11.4-2.8,17.4c-2.1,6-4,10.4-1.1,15.9c2.9,5.4,4.5,9.8,11.5,7.1
			c5.6-2.5,17.6-26.4,17.6-26.4c-2.8,10.4-11.8,23.8-17,26.2c0.2,1.5-0.1,2.6-0.1,2.6s-6,9.5-8.1,23.6c-2.1,14.1-7.5,30.4-9.3,49
			c-1.8,18.6,4.7,63.2,4.7,63.2s1.6,26.3-1.5,29.9c-3.1,3.6-1.8,11.1-1.8,11.1s-11.4,3.3-9.2,4.2c2.3,1,10.8,2.3,10.8,2.3
			s9.2-2.6,12-1.6c2.8,1,6.4-1.1,14.9,1c8.5,2.1,13.9,0.7,19.3-2.1c5.4-2.8,11.1,7.1,19.6,2.3c8.5-4.7,18,3.4,23.8-3.7
			C296.9,284.4,295.6,263.9,284.7,237.6z M219.9,76.2V61c0,0,1-6.4-1.7-7.6l1.9-3.1c3.6,1.7,6,4,6.4,4.7
			C224.3,57,219.9,76.2,219.9,76.2z"/>
		<path class="st0" d="M196.3,102.8c0-1.1-5.1-1.3-6.9-1.3c-1.8,0-3,1.8-3,1.8h-2.2c0,0-0.2-7.9-0.2-9c0-1.1-1.5-1.4-2.5-0.5
			c-0.3-1.7-3.7-0.8-4.9-0.3c-2.2-1.7-9.5,6.3-10.1,6.9c-0.7,0.5-0.2,0.6,0,8.3c-7.3,8-23.7,18.4-27.6,20.3
			c-2.3-1.9-6.9-0.5-6.9-0.5s-4.1-2-6.7-1.1c-6.4-3-14.2-12.5-14.2-12.5s0.2-4.1-0.8-5.6c0.7-6.8,5.2-5.6,8.2-7.2
			c3-1.6,0.5-4.4-0.2-4.9c-0.7-0.5,0.7-1.2,0.6-2.2c-0.1-1-1.3-1.5-0.3-1.4c0.9,0.2,0.6-1.3,0.6-2.3c0-1,2.3-1.7,3-3.2
			c-2.1-0.2-5.2-4.9-5.2-4.9v-5.1c0,0-1.4-2.1-4.3-5.5c0-0.1,0-0.2-0.1-0.3l0,0c0,0,5.3-0.3,4.2-4.2c0.4,0.8-3.3,0.8-8.6-0.7
			c0,0,0,0,0,0c-4.8-2.3-12.4-2.4-16.1-1.3C86.6,67.7,82,76,82,82.8c0,6.8,6.6,17.1,6.6,17.1s-3.4,4.4-2.6,8.4
			c-11.3,16-7.4,40.4-7.4,40.4l3.2,28.4c0,0-5.7,16.7-7.6,26.4c-1.9,9.6-1.2,34,2.1,36.4c3.4,2.4,5.4,3.5,5.4,3.5s0.6,4.5,0.9,7.6
			C83,254,85.7,268,85.7,268c-9.8-4.8-37.8,4.2-37.8,4.2s-5.2-3.6-7-4.2c0-5.3-5-8.4-5-8.4s-0.5-0.6-0.9-1.5
			c-3.8-0.5-12.6,8.2-13.7,10.7c-1.1,2.5-5.9,4.1-9.2,6.8c-3.4,2.7-8.8,9.3-8.8,9.3c-1.3,1.6,2.7,4.3,5.3,2.4
			c2.6-1.9,9.3-5.3,12.7-4.9c3.4,0.4,14,0.4,14,0.4s0.3,2.1,1.4,5.1c37.4,0.8,58.5,1,64.8-0.2c6.3-1.1,8.6-8.6,9.8-16.2
			c1.2-7.7,1.9-24.6,1.9-24.6l14.6-2.8c0,0-6.5,22.7-8.9,30.1c-4.2,3.9-2.5,14.4-2.5,14.4s5.4,0,12.2,0c1.6,0,3.1-0.7,4.8-0.7
			c2.1,0,4.3,0.7,6.3,0.7c6.8,0,13,0,15.1,0c5.3,0,5.6-4.6,4.4-5.4c-1.2-0.8-6.8-1.2-12.7-2.6c-6-1.4-6.3-6.8-6.3-6.8l7.4,0.5
			c0,0,3.7-21.5,6-34.3c2.4-12.8,12.2-27.4,10.6-35.5c-1.5-8.1-25.7-12.8-41.2-15.5c9.8-22.1,6.3-40.7,6.3-40.7s10.3,0.5,14.2-0.5
			c3.9-1,33.6-25.1,33.6-25.1s-0.9-4.6-2.1-7.5C192.4,110.3,196.3,103.9,196.3,102.8z M138.2,219.3c0,0-6.6,10.1-6.9,14
			c0,0-1.6-9.8-1.6-14C133.8,218.8,138.2,219.3,138.2,219.3z M180,103.1h-2.6c0,0,1-3,2.6-3.8V103.1z"/>
	</g>
	<path class="st0" d="M66.4,11.9L34.6,33.2c-3.2,2.2-4.1,6.5-1.9,9.7l11.6,17.2c2.2,3.2,6.5,4.1,9.7,1.9l8.6-5.8l11.2,2.2L76,47.4
		l9.8-6.6c3.2-2.2,4.1-6.5,1.9-9.7L76.1,13.8C73.9,10.6,69.6,9.7,66.4,11.9z M67.9,30.2c1,1.4,1.2,3.1,0.9,4.6l0,0l0,0
		c0,0.2-0.1,0.4-0.1,0.6L66,45.6l-10.5-1.4c-0.2,0-0.4,0-0.6-0.1l0,0l0,0c-1.5-0.3-2.9-1.2-3.9-2.6c-1.8-2.7-1.2-6.3,1.3-8
		c1.6-1.1,3.6-1.2,5.3-0.4c0-1.9,0.8-3.6,2.4-4.7C62.5,26.7,66.1,27.5,67.9,30.2z"/>
</g>
</svg>
