<?xml version="1.0" standalone="no"?>
<!DOCTYPE svg PUBLIC "-//W3C//DTD SVG 20010904//EN"
 "http://www.w3.org/TR/2001/REC-SVG-20010904/DTD/svg10.dtd">
<svg version="1.0" xmlns="http://www.w3.org/2000/svg"
 width="700.000000pt" height="700.000000pt" viewBox="0 0 700.000000 700.000000"
 preserveAspectRatio="xMidYMid meet">
<metadata>
Created by potrace 1.11, written by Peter Selinger 2001-2013
</metadata>
<g transform="translate(0.000000,700.000000) scale(0.100000,-0.100000)"
fill="#000000" stroke="none">
<path d="M5107 6354 c-1 -1 -24 -4 -52 -8 -76 -9 -134 -27 -340 -106 -104 -40
-226 -86 -270 -102 -44 -16 -89 -34 -100 -39 -11 -5 -128 -49 -260 -99 -132
-50 -256 -97 -275 -105 -19 -8 -143 -55 -275 -105 -132 -50 -247 -93 -255 -97
-8 -3 -42 -16 -75 -28 -33 -13 -168 -64 -300 -115 -132 -51 -258 -99 -280
-107 -59 -21 -325 -123 -360 -138 -16 -7 -61 -24 -100 -38 -38 -14 -92 -34
-120 -45 -27 -10 -212 -81 -410 -157 -198 -75 -398 -152 -445 -170 -47 -18
-217 -83 -378 -145 -161 -61 -324 -129 -362 -151 -121 -70 -239 -192 -308
-319 -32 -59 -79 -183 -86 -228 -28 -164 -24 -262 13 -397 10 -38 89 -252 174
-475 85 -223 221 -578 302 -790 161 -423 392 -1028 431 -1130 106 -275 310
-459 590 -534 78 -20 111 -24 215 -21 68 1 135 5 149 9 66 15 196 62 530 191
47 18 117 45 155 59 39 15 86 33 105 41 19 7 87 33 150 56 63 23 119 46 124
51 6 4 19 8 31 8 12 0 25 4 31 9 5 5 46 22 92 39 l83 30 187 -83 c103 -45 212
-94 242 -108 30 -13 208 -93 395 -177 187 -84 354 -158 370 -166 41 -18 59
-21 60 -9 1 6 11 30 22 55 70 155 249 555 296 660 30 69 69 154 85 190 26 55
71 157 132 297 14 32 49 49 260 124 30 11 64 24 75 29 11 5 133 51 270 104
627 238 734 279 793 307 221 103 389 301 451 530 29 106 33 134 33 229 0 152
-19 219 -167 600 -19 47 -63 164 -100 260 -37 96 -114 298 -171 449 -58 150
-115 301 -128 335 -31 82 -132 346 -161 421 -13 33 -71 186 -130 340 -58 154
-120 305 -137 335 -147 261 -413 423 -710 433 -49 2 -89 2 -91 1z m-1017
-1809 c200 -62 368 -216 450 -414 37 -92 52 -159 55 -261 5 -134 -24 -262 -80
-365 -12 -22 -66 -125 -120 -230 -54 -104 -115 -221 -135 -260 -21 -38 -75
-142 -120 -230 -170 -330 -213 -410 -220 -419 -7 -7 -158 47 -490 174 -25 10
-164 63 -310 118 -146 55 -318 120 -382 145 -138 53 -210 97 -294 183 -145
146 -224 356 -211 558 7 113 28 191 73 280 116 230 332 359 586 352 135 -4
223 -32 343 -106 17 -10 33 -19 36 -19 4 -1 12 20 18 45 13 50 72 174 103 214
109 142 275 239 436 256 31 4 58 7 59 8 8 6 157 -16 203 -29z"/>
</g>
</svg>
