<?xml version="1.0" encoding="utf-8"?>
<!-- Generator: Adobe Illustrator 25.0.1, SVG Export Plug-In . SVG Version: 6.00 Build 0)  -->
<svg version="1.1" id="Camada_1" xmlns="http://www.w3.org/2000/svg" xmlns:xlink="http://www.w3.org/1999/xlink" x="0px" y="0px"
	 viewBox="0 0 300 248.5" style="enable-background:new 0 0 300 248.5;" xml:space="preserve">
<style type="text/css">
	.st0{fill:#32676D;}
</style>
<path class="st0" d="M258,2.5L40.9,3.6c-22,0.1-39.7,18-39.6,40l0.6,118c0.1,22,18,39.7,40,39.6l58.7-0.3l45.9,45.4l45.4-45.9
	L259,200c22-0.1,39.7-18,39.6-40L298,42C297.9,20.1,280,2.4,258,2.5z M207.4,94.1c0.1,9.7-3.8,18.4-9.9,24.5l0,0h-0.1
	c-0.8,0.8-1.6,1.5-2.5,2.2L150.2,161l-45.1-39.7c-0.9-0.7-1.7-1.4-2.5-2.2h-0.1l0,0c-6.2-6.1-10.1-14.8-10.2-24.4
	c0.1-18.5,14.1-33.5,31.4-33.6c10.8-0.1,20.4,5.7,26.1,14.6c5.6-8.9,15.1-14.8,26-14.9C193.2,60.7,207.3,75.6,207.4,94.1z"/>
</svg>
