<?xml version="1.0" encoding="utf-8"?>
<!-- Generator: Adobe Illustrator 25.0.1, SVG Export Plug-In . SVG Version: 6.00 Build 0)  -->
<svg version="1.1" id="Camada_1" xmlns="http://www.w3.org/2000/svg" xmlns:xlink="http://www.w3.org/1999/xlink" x="0px" y="0px"
	 viewBox="0 0 300 300" style="enable-background:new 0 0 300 300;" xml:space="preserve">
<style type="text/css">
	.st0{fill:#E6B5A8;}
	.st1{fill:#E2AF9A;}
	.st2{fill:#32676D;}
</style>
<g>
	<g>
		<g>
			<path class="st0" d="M149.7,295.2c-1.5,0-2.9-0.1-4.3-0.4c-6.7-1.4-12-5.5-16.6-9.2l-0.1-0.1c-0.9-0.7-1.8-1.4-2.7-2.1l-1.1-0.8
				c-3.7-2.8-7.3-5.4-10.7-5.7c-0.7-0.1-1.4-0.1-2.2-0.1c-3.5,0-7.2,0.5-11.1,1.1l-1.8,0.3c-2.9,0.4-6.4,0.9-9.9,0.9
				c-10.7,0-18.3-4.4-23.3-13.4c-1.8-3.2-3.1-6.7-4.4-10.1c-2.2-5.7-4.2-11.1-8-13.6c-3.1-2.1-6.8-3.5-10.8-5.1
				c-5.5-2.2-11.2-4.4-16.3-8.5c-10.9-8.8-8.1-23-6.2-32.4l0-0.2c0.3-1.4,0.5-2.7,0.7-3.9c0.9-5.3,0.9-8.3-1-11.9
				c-1.5-2.8-3.7-5.4-6-8.2c-2-2.5-4.1-5-5.9-7.9c-9.8-15.2-0.7-26.9,6-35.4c2-2.5,3.8-4.8,5.2-7.2c2.3-3.8,2.7-6.6,1.9-11.9
				c-0.3-1.7-0.6-3.4-0.9-5.2c-0.7-4-1.5-8-1.7-12.3c-0.9-18.2,13.1-24,20.6-27.1c0.9-0.4,1.8-0.7,2.7-1.1c3.9-1.6,7.6-3.1,10.9-5.1
				c2.5-1.5,3.9-3.4,5.7-7.3c0.7-1.6,1.4-3.5,2.2-5.5c3.2-8.6,7.2-19.2,17.4-23.4c3.3-1.3,7-2,11.1-2c4.5,0,8.9,0.8,13.2,1.5
				c3.9,0.7,7.6,1.3,10.8,1.2c4.9-0.2,9.2-3.6,14.1-7.6c4.5-3.6,9.6-7.7,16.1-9.8c2.1-0.7,4.4-1,6.6-1c9.6,0,17.4,6.1,24.2,11.5
				c2.6,2.1,5.1,4,7.2,5.3c2,1.2,4.4,1.7,7.6,1.7c3.3,0,6.9-0.6,10.8-1.2c3.3-0.5,6.7-1.1,10-1.3c0.6,0,1.2-0.1,1.8-0.1
				c15.4,0,21.9,10.7,26.3,21.2c0.5,1.1,0.9,2.3,1.4,3.4l0.1,0.2c1.5,3.7,2.8,7.1,4.6,10c1.4,2.3,5.4,4.1,8.1,5.3
				c1.6,0.7,3.5,1.4,5.6,2.2c7.8,2.9,17.5,6.5,21.7,15.3c4.2,8.8,2.3,18,0.7,26.1c-0.8,3.8-1.5,7.3-1.5,10.3c0,4.3,3.3,8.2,7.2,12.6
				c3.6,4.1,7.6,8.8,9.6,14.7c0.6,1.2,1,2.9,1.1,4.6l0.1,0.5c1.2,10.8-5.4,19-10.8,25.5c-2.8,3.4-5.4,6.5-6.6,9.5
				c-1.5,3.7-0.4,9.1,0.8,14.8c0.7,3.6,1.5,7.3,1.7,11c0.8,15.7-9.4,22.1-17,25.6c-2.1,0.9-4.2,1.7-6.5,2.6
				c-5.4,2-11.4,4.2-13.6,7.4c-2.1,3.1-3.6,6.9-5.2,10.9c-2.2,5.8-4.6,11.8-9.2,17.1c-4.4,5-10.7,7.6-18.6,7.6
				c-4.3,0-8.5-0.7-12.3-1.3c-1.8-0.3-3.5-0.6-5-0.8c-2-0.2-4.2-0.5-6.2-0.5c-2.4,0-4.2,0.3-5.6,1.1c-3.9,2-7.6,4.9-11.5,7.9
				c-1.2,0.9-2.4,1.8-3.6,2.7C163.2,291.3,157.1,295.2,149.7,295.2z M111.8,275.6c0.8,0,1.6,0,2.3,0.1c3.8,0.3,7.5,3,11.4,5.9
				l1.1,0.8c0.9,0.7,1.8,1.4,2.7,2.1l0.1,0.1c4.5,3.6,9.7,7.6,16.1,8.9c1.4,0.3,2.7,0.4,4.1,0.4c7.1,0,13-3.7,16.8-6.5
				c1.2-0.9,2.4-1.8,3.6-2.7c4-3,7.7-5.9,11.7-8c1.6-0.8,3.5-1.2,6.1-1.2c2.1,0,4.3,0.2,6.3,0.5c1.5,0.2,3.2,0.5,4.9,0.7
				c3.8,0.6,8,1.3,12.2,1.3c7.5,0,13.5-2.4,17.7-7.2c4.5-5.1,6.8-11,9-16.8c1.6-4.1,3.1-8,5.3-11.2c2.4-3.5,8.7-5.8,14.1-7.8
				c2.3-0.9,4.5-1.7,6.5-2.6c7.4-3.3,17.1-9.5,16.3-24.4c-0.2-3.6-0.9-7.2-1.7-10.8c-1.2-5.9-2.4-11.4-0.7-15.5
				c1.3-3.1,3.9-6.4,6.8-9.8c5.2-6.4,11.7-14.3,10.5-24.6L295,147c-0.1-1.6-0.5-3.1-1-4.2c-1.9-5.8-5.9-10.3-9.4-14.4
				c-4.1-4.7-7.5-8.7-7.5-13.4c0-3.1,0.7-6.7,1.5-10.5c1.6-8,3.5-17-0.6-25.4c-4-8.4-13.5-11.9-21.1-14.7c-2.1-0.8-4.1-1.5-5.7-2.2
				c-2.8-1.3-6.9-3.2-8.6-5.8c-1.9-3-3.3-6.5-4.7-10.2l-0.1-0.2c-0.5-1.1-0.9-2.3-1.4-3.4C232.3,32.3,226,22,211.4,22
				c-0.6,0-1.1,0-1.7,0c-3.3,0.2-6.7,0.7-9.9,1.3c-3.9,0.6-7.5,1.2-10.9,1.2c-3.4,0-6-0.6-8.2-1.9c-2.2-1.3-4.7-3.3-7.4-5.4
				C166.6,12,159,6,149.8,6c-2.1,0-4.2,0.3-6.2,1c-6.2,2-11.2,6-15.7,9.5c-5.1,4.1-9.5,7.7-14.9,7.9c-3.3,0.1-7-0.5-11-1.2
				c-4.2-0.7-8.6-1.5-13-1.5c-4,0-7.5,0.6-10.7,1.9c-9.7,3.9-13.6,14.3-16.7,22.7c-0.8,2.1-1.5,4-2.2,5.6c-1.9,4.1-3.4,6.1-6.2,7.8
				c-3.3,2.1-7.1,3.6-11.1,5.2c-0.9,0.4-1.8,0.7-2.7,1.1c-7.2,3-20.7,8.6-19.8,25.9c0.2,4.2,0.9,8.2,1.6,12c0.4,1.9,0.7,3.7,0.9,5.4
				c0.8,5.6,0.3,8.6-2.1,12.7c-1.4,2.4-3.3,4.8-5.3,7.3c-6.4,8.2-15.3,19.5-5.9,34c1.8,2.8,3.9,5.3,5.8,7.7c2.3,2.9,4.5,5.5,6.1,8.4
				c2.1,3.9,2.1,7,1.2,12.6c-0.2,1.3-0.5,2.6-0.7,4l0,0.2c-1.8,9.1-4.5,22.9,5.8,31.2c5,4,10.5,6.2,16,8.3c4,1.6,7.9,3.1,11,5.2
				c4.1,2.7,6.2,8.3,8.4,14.2c1.3,3.3,2.6,6.8,4.3,9.9c4.8,8.6,12.1,12.8,22.3,12.8c3.4,0,6.8-0.4,9.7-0.8l1.8-0.3
				C104.5,276.2,108.2,275.6,111.8,275.6z"/>
		</g>
	</g>
	<g>
		<g>
			<path class="st0" d="M288.8,148.2C288.9,148.8,288.1,142.3,288.8,148.2L288.8,148.2z"/>
			<path class="st0" d="M271.9,179.5c4.3-10.5,18.3-18.9,16.9-31.3c-1.5-13-18.1-19.6-18-33.3c0-10.5,6.4-23.1,1.6-33.2
				c-3.9-8.1-16.3-10.5-23.7-14c-4.1-1.9-8.7-4.2-11.2-8.2c-2.9-4.6-4.6-9.8-6.7-14.8c-4.1-9.9-9.1-17.2-20.8-16.6
				c-10.5,0.6-22.8,5.4-32.5-0.2c-9.4-5.4-19.9-18.9-32-15.1c-11.8,3.7-19.2,17.2-32.2,17.7c-10.3,0.3-22.6-5.3-32.5-1.3
				c-9.2,3.7-11.9,16.9-15.6,25c-2.1,4.5-4.3,7.9-8.6,10.6c-4.6,2.8-9.7,4.7-14.6,6.7c-9.6,4-16.5,8.4-16,19.8
				c0.3,5.7,1.7,11.2,2.5,16.8c1,6.5,0.5,11-2.9,16.8c-6.7,11.3-20.5,20.5-11.3,34.7c3.7,5.8,8.9,10.4,12.2,16.6
				c3.1,5.6,2.8,10.5,1.8,16.6c-1.5,9.2-5.9,22.5,2.8,29.5c7.7,6.2,18.3,7.7,26.5,13.2c8.6,5.7,10,17.8,14.8,26.3
				c5.8,10.5,14.8,10.4,25.6,8.8c5.5-0.8,11.1-1.8,16.7-1.4c6.1,0.5,10.9,4.4,15.7,7.9c5,3.7,10.3,8.7,16.5,10
				c5.9,1.2,11.2-1.6,15.9-5c5.2-3.8,10.3-8.2,16.1-11.2c4.9-2.6,10.8-2,16.1-1.4c9.4,1.1,22,5.3,29.3-3c6.9-7.8,8-19,13.8-27.4
				c4.8-6.9,16-9.3,23.2-12.6c8.4-3.8,13.1-8.7,12.6-18.4C273.4,199.3,268.3,188.4,271.9,179.5z M150,258.2
				c-59.7,0-108.2-48.4-108.2-108.2S90.3,41.8,150,41.8c59.7,0,108.2,48.4,108.2,108.2S209.8,258.2,150,258.2z"/>
		</g>
	</g>
	<path class="st1" d="M186.6,85.3c-0.8-0.6-1.7-0.7-2.7-0.6c-1,0.2-1.8,0.7-2.4,1.5c-0.6,0.8-0.7,1.7-0.5,2.8
		c0.2,1.1,0.7,1.9,1.5,2.4c0.8,0.6,1.7,0.7,2.7,0.6c1-0.2,1.8-0.7,2.4-1.5c0.6-0.8,0.7-1.7,0.6-2.8
		C187.9,86.7,187.4,85.8,186.6,85.3z"/>
	<path class="st1" d="M139.5,93.6c-0.8-0.6-1.7-0.7-2.7-0.6c-1,0.2-1.8,0.7-2.4,1.5c-0.6,0.8-0.7,1.7-0.5,2.8
		c0.2,1.1,0.7,1.9,1.5,2.4c0.8,0.6,1.7,0.7,2.7,0.6c1-0.2,1.8-0.7,2.4-1.5c0.6-0.8,0.7-1.7,0.6-2.8C140.8,95,140.3,94.2,139.5,93.6z
		"/>
	<path class="st1" d="M114.6,98c-0.8-0.6-1.7-0.7-2.7-0.6c-1,0.2-1.8,0.7-2.4,1.5c-0.6,0.8-0.7,1.7-0.5,2.8c0.2,1.1,0.7,1.9,1.5,2.4
		c0.8,0.6,1.7,0.7,2.7,0.6c1-0.2,1.8-0.7,2.4-1.5c0.6-0.8,0.7-1.7,0.6-2.8C115.9,99.4,115.4,98.6,114.6,98z"/>
	<path class="st0" d="M133,53.6c-42.6,7.5-73.8,41.6-79.8,82.2l182.9-32.3C216.6,67.5,175.6,46.1,133,53.6z M170.1,79.1
		c0.3-0.5,0.8-0.8,1.3-0.9c0.6-0.1,1.1,0,1.6,0.4c0.5,0.3,0.8,0.8,0.9,1.3c0.1,0.6,0,1.1-0.4,1.5c-0.3,0.5-0.8,0.8-1.4,0.9
		c-0.6,0.1-1.1,0-1.5-0.4c-0.5-0.3-0.8-0.8-0.9-1.3C169.7,80.1,169.8,79.5,170.1,79.1z M102.2,107.4c-1.4,1.9-3.4,3.1-6,3.5
		c-2.8,0.5-5.3,0-7.4-1.5c-2.2-1.5-3.5-3.5-3.9-6.2c-0.5-2.6,0-5,1.5-7.2c1.5-2.1,3.6-3.5,6.3-3.9c1.7-0.3,3.3-0.2,4.8,0.3
		c1.5,0.5,2.8,1.3,3.8,2.5l-2.7,2.3c-0.6-0.7-1.3-1.1-2.3-1.5c-1-0.3-2-0.4-3-0.2c-1.7,0.3-3,1.1-3.9,2.4c-0.9,1.3-1.2,2.8-0.9,4.6
		c0.3,1.7,1.1,3,2.4,3.9c1.3,0.9,2.9,1.2,4.8,0.9c1.4-0.2,2.5-0.8,3.3-1.5c0.8-0.8,1.3-1.7,1.4-2.8l-5.5,1l-0.6-3.1l9.1-1.6l0.2,1.4
		C104.1,103.3,103.6,105.6,102.2,107.4z M117.2,106.9l-0.3-1.5c-0.8,1.4-2.1,2.3-3.9,2.6c-1.7,0.3-3.3-0.1-4.8-1.2
		c-1.5-1.1-2.4-2.6-2.7-4.5c-0.3-1.9,0-3.6,1-5.2c1-1.5,2.4-2.5,4.1-2.8c1.8-0.3,3.3,0.1,4.5,1.1L115,94l3.3-0.6l2.3,12.9
		L117.2,106.9z M125.8,99l1.1,6.2l-3.3,0.6l-2.3-12.9l3.3-0.6l0.4,2.2c0.2-0.9,0.6-1.6,1.2-2.1c0.6-0.5,1.4-0.9,2.3-1l0.7,3.7
		c-1,0.1-1.9,0.4-2.6,1.1C125.9,96.8,125.6,97.8,125.8,99z M142.1,102.5l-0.3-1.5c-0.8,1.4-2.1,2.3-3.9,2.6
		c-1.7,0.3-3.3-0.1-4.8-1.2c-1.5-1.1-2.4-2.6-2.7-4.5c-0.3-1.9,0-3.6,1-5.2c1-1.5,2.4-2.5,4.1-2.8c1.8-0.3,3.3,0.1,4.5,1.1l-0.3-1.5
		l3.3-0.6l2.3,12.9L142.1,102.5z M157.2,99.8l-1.3-7.5c-0.2-0.9-0.5-1.5-1-1.9c-0.5-0.4-1.2-0.5-2-0.4c-0.9,0.2-1.5,0.5-1.9,1.2
		c-0.4,0.6-0.5,1.5-0.4,2.5l1.2,7l-3.3,0.6l-2.3-12.9l3.3-0.6l0.3,1.4c0.6-1.3,1.8-2.2,3.5-2.5c1.4-0.2,2.7,0,3.7,0.8
		c1.1,0.8,1.8,2,2.1,3.7l1.4,7.9L157.2,99.8z M165.8,97.7c-1.1-0.5-1.7-1.7-2.1-3.4l-0.9-5.4l-2.2,0.4l-0.6-3.2l2.2-0.4l-0.5-2.6
		l3.2-1.6l0.6,3.6l2.9-0.5l0.6,3.2l-2.9,0.5l0.9,5.4c0.1,0.4,0.2,0.8,0.5,0.9c0.3,0.2,0.6,0.2,1,0.2c0.4,0,1-0.1,1.6-0.3l0.5,3
		C168.5,98.1,166.8,98.2,165.8,97.7z M173.1,97l-2.3-12.9l3.3-0.6l2.3,12.9L173.1,97z M189.2,94.2l-0.3-1.5
		c-0.8,1.4-2.1,2.3-3.9,2.6c-1.7,0.3-3.3-0.1-4.8-1.2c-1.5-1.1-2.4-2.6-2.7-4.5s0-3.6,1-5.2c1-1.5,2.4-2.5,4.1-2.8
		c1.8-0.3,3.3,0.1,4.5,1.1l-0.3-1.5l3.3-0.6l2.3,12.9L189.2,94.2z"/>
	<g>
		<g>
			<path class="st0" d="M154.4,209.2c-0.8-0.6-1.7-0.8-2.8-0.6c-1.1,0.2-1.9,0.7-2.4,1.5c-0.6,0.8-0.8,1.8-0.6,2.9
				c0.2,1.1,0.7,1.9,1.5,2.5c0.8,0.6,1.8,0.8,2.8,0.6c1.1-0.2,1.9-0.7,2.4-1.5c0.6-0.8,0.7-1.8,0.6-2.9
				C155.8,210.6,155.3,209.7,154.4,209.2z"/>
			<path class="st0" d="M177.5,205.1c-0.8-0.6-1.8-0.8-2.8-0.6c-1.1,0.2-1.9,0.7-2.4,1.5c-0.6,0.8-0.7,1.8-0.6,2.9
				c0.2,1.1,0.7,1.9,1.5,2.5c0.8,0.6,1.7,0.8,2.8,0.6c1.1-0.2,1.9-0.7,2.4-1.5c0.6-0.8,0.8-1.8,0.6-2.9
				C178.8,206.5,178.3,205.6,177.5,205.1z"/>
			<path class="st0" d="M63.8,196.3c19.5,36.2,60.6,57.6,103.2,50c42.6-7.5,73.9-41.7,79.8-82.3L63.8,196.3z M132,222.7l-3.9,0.7
				l3.4-16.1l-7.9,1.4l-0.6-3.5l11.9-2.1l0.6,3.1L132,222.7z M157.1,218.3l-0.3-1.6c-0.8,1.5-2.1,2.4-3.9,2.7
				c-1.8,0.3-3.4-0.1-4.9-1.2c-1.5-1.1-2.4-2.7-2.8-4.6c-0.3-2,0-3.7,1-5.3c1-1.6,2.4-2.5,4.2-2.8c1.8-0.3,3.4,0.1,4.6,1.2l-1.2-6.8
				l3.4-0.6l3.3,18.5L157.1,218.3z M160.2,200.3c-0.1-0.6,0-1.1,0.4-1.6c0.3-0.5,0.8-0.8,1.4-0.9c0.6-0.1,1.1,0,1.6,0.4
				c0.5,0.3,0.8,0.8,0.9,1.4c0.1,0.6,0,1.1-0.4,1.6c-0.3,0.5-0.8,0.8-1.4,0.9c-0.6,0.1-1.1,0-1.6-0.4
				C160.6,201.3,160.3,200.9,160.2,200.3z M163.7,217.1l-2.4-13.2l3.4-0.6l2.4,13.2L163.7,217.1z M180.2,214.1l-0.3-1.6
				c-0.8,1.5-2.1,2.4-4,2.7c-1.8,0.3-3.4-0.1-4.9-1.2c-1.5-1.1-2.4-2.7-2.8-4.6c-0.3-2,0-3.7,1-5.3c1-1.6,2.4-2.5,4.2-2.8
				c1.8-0.3,3.4,0.1,4.6,1.2l-0.3-1.6l3.4-0.6l2.4,13.2L180.2,214.1z M194.9,210.8c-0.9,0.9-2.1,1.5-3.6,1.8
				c-2.7,0.5-4.7-0.2-6.1-2.2l2.7-2.2c0.6,1.1,1.6,1.5,2.9,1.3c1.2-0.2,1.8-0.7,1.6-1.5c-0.1-0.4-0.3-0.6-0.9-0.7
				c-0.5-0.1-1.1-0.2-1.8-0.3s-1.4-0.2-2.1-0.3c-0.7-0.1-1.4-0.5-1.9-0.9c-0.6-0.5-0.9-1.2-1.1-2c-0.2-1.3,0.1-2.4,0.9-3.3
				c0.8-0.9,2-1.5,3.4-1.8c1.1-0.2,2.1-0.1,3.1,0.2c1,0.3,1.8,0.9,2.5,1.7l-2.6,2.1c-0.6-0.8-1.4-1.1-2.4-1c-0.4,0.1-0.8,0.2-1,0.5
				c-0.3,0.2-0.4,0.5-0.3,0.9c0.1,0.4,0.3,0.6,0.9,0.7c0.5,0.1,1.1,0.2,1.8,0.3c0.7,0,1.4,0.1,2.1,0.3c0.7,0.1,1.4,0.5,1.9,1
				c0.6,0.5,0.9,1.2,1.1,2.1C196.1,208.7,195.8,209.9,194.9,210.8z"/>
		</g>
	</g>
	<g>
		<path class="st2" d="M129.1,140c0.2-0.6,0.6-1.3,1.2-2.2c-1.9,0.3-4.7,0.6-8.5,1c-4.7,0.4-7.9,0.8-9.6,1.1c-1.7,0.3-4,0.9-7,1.7
			c-3.9,1.3-7.2,3-9.8,5.2c-2.6,2.2-4,4.6-4.1,7.3c0,0.3,0,0.6,0,0.9c0.1,0.4,0.3,0.8,0.6,1.2c0.3,0.5,0.7,0.8,1.1,1.1
			c0.4,0.2,1,0.5,1.8,0.8c0.8,0.3,1.3,0.5,1.6,0.7c0.3,0.2,0.3,0.3,0.2,0.5c-0.1,0.2-0.3,0.2-0.4,0.3s-0.3,0-0.5,0
			c-1.5-0.2-2.9-0.7-4.1-1.7c-1.2-1-1.9-1.9-2-2.7c-0.1-0.8-0.2-1.5,0-2.1c-0.1-0.5-0.1-0.8-0.1-1c0.1-3.1,1.6-5.8,4.6-8.1
			c3.5-2.7,8.1-4.5,13.8-5.5c3.4-0.6,8-1,13.8-1.3c5.7-0.2,8.9-0.4,9.6-0.5c0.9-1.5,1.7-2.3,2.3-2.4c0.2-0.1,0.5-0.2,0.9-0.2
			c0.4-0.1,0.7,0,1.1,0.2c0.3,0.2,0.5,0.5,0.6,0.8c0.1,0.3,0,0.6-0.2,1c-0.2,0.3-0.6,0.9-1.3,1.6c-0.7,0.7-1.2,1.3-1.6,1.9
			c-1.8,2.6-2.6,4.7-2.3,6.4c0.1,0.7,0.4,1.3,0.8,1.7c0.4,0.4,0.4,0.7,0.1,1c-0.3,0.3-0.7,0.2-1.2-0.2c-0.5-0.3-0.9-1.3-1.2-3.1
			C128.5,143.4,128.6,141.7,129.1,140z M109.7,171.9c0.1,0,0.2,0.1,0.3,0.4c0,0.3-0.2,0.7-0.7,1.4l-0.5,1.1c-0.8,1.9-1.5,3.1-2,3.5
			c-0.5,0.4-0.9,0.6-1.2,0.7c-0.3,0.1-0.8,0.1-1.5,0c-0.7,0-1.1-0.1-1.1-0.3c-0.1-0.2-0.1-0.5-0.2-1.1c-0.1-0.6,0.1-2,0.5-4.2
			c0.4-2.3,1-4.5,1.7-6.7c1.3-4.2,2.6-8.2,3.9-12.2c0.3-0.8,0.3-1.4,0.3-1.8c-0.1-0.4-0.2-0.7-0.4-0.9c0-1.3,0.8-3,2.3-5.3
			c1.5-2.2,3-3.5,4.6-3.8c0.7-0.1,1.6,0,2.6,0.4c1.1,0.4,1.6,1,1.6,1.8c-0.3-0.2-0.6-0.2-0.9-0.2c-1.8,0.3-3.7,2.5-5.8,6.4
			c-3.4,6.6-6,13.9-7.8,21.9c-0.2,1-0.2,1.6-0.2,1.9c0.1,0.3,0.1,0.5,0.1,0.6c0.2,0.4,0.6,0.5,1.1,0.2c0.5-0.3,0.9-0.7,1.3-1.4
			C108.7,172.8,109.3,172,109.7,171.9z"/>
		<path class="st2" d="M129,165c0.5-1.7,0.7-3,0.5-3.8c-0.2-0.9-0.4-1.5-0.6-2c-0.3-0.5-0.3-0.9,0-1.3c0.3-0.4,0.7-0.6,1.3-0.6
			c0.9,0.1,1.5,0.9,1.8,2.6c0.3,1.7-0.3,4.1-1.8,7.2c0.2,1.1,0.9,1.6,2.1,1.4c1.1-0.2,2.7-1.7,4.6-4.6c0.9-1.5,1.4-2.4,1.6-2.9
			c0.2-0.4,0.4-0.6,0.7-0.5c0.2,0.1,0.4,0.1,0.4,0.2c0.1,0.4-0.5,1.7-1.7,3.7c-1.9,3.4-3.8,5.3-5.7,5.6c-1.2,0.2-2.2-0.2-2.9-1.1
			c-0.7,1-1.4,2-2,2.9c-1.4,1.7-3.1,2.7-5.2,3.1c-1.1,0.2-2.2,0.1-3-0.3c-1.6-0.6-2.7-2.1-3.1-4.4c-0.4-2.5-0.1-5.2,1.2-8.1
			c0.7-1.7,1.6-3.3,2.7-4.6c1.8-2.2,3.6-3.5,5.4-3.8c0.5-0.1,0.9-0.1,1.4,0c1.4,0.2,2.1,0.9,2.3,2.1c0.2,1,0,1.5-0.5,1.6
			c-0.2,0-0.4-0.3-0.5-0.9c-0.1-0.8-0.6-1.1-1.5-0.9c-1.5,0.3-3.2,2-5,5.1c-1.9,3.1-2.8,6.1-2.7,9c0,0.5,0,1,0.2,1.6
			c0.1,0.6,0.4,1.2,0.9,1.9c0.5,0.7,1.3,0.9,2.3,0.7c1-0.2,2.1-0.9,3.2-2c1.1-1.2,2-2.5,2.7-4.2l-0.3-0.3c-0.3-0.7-0.3-1.2,0-1.7
			C128,165.2,128.4,164.9,129,165z"/>
		<path class="st2" d="M146.5,150.7c3.2-0.9,5.2-1.4,5.9-1.5c0.7-0.1,1.1-0.1,1.1,0.1c0,0.3-0.4,0.6-1.4,1.1c-1,0.5-3.3,1.2-7.1,2.4
			c-0.1,0.4-0.3,0.9-0.5,1.5c-0.5,1.1-0.7,1.8-0.7,2c-1.6,5.3-2.3,8.6-2.2,9.9c0,0.4,0.1,0.9,0.2,1.5c0.1,0.6,0.4,1.1,0.8,1.4
			c0.7,0.6,1.6,0.5,2.6-0.3c1-0.8,2.3-2.3,4-4.4s3-4.2,3.9-6.1c0.1-0.2,0.3-0.3,0.6-0.2c0.7,0.2-0.1,2.1-2.4,5.6
			c-2.2,3.4-4.2,5.6-5.9,6.6c-1,0.6-1.9,0.9-2.6,1.1c-1.7,0.3-3-0.3-3.8-1.8c-0.1-0.3-0.2-0.6-0.3-1.1c-0.3-1.5,0-3.9,0.8-7.1
			c-0.1,0.5-0.8,1.7-1.9,3.6c-0.3,0.5-0.6,0.5-0.9,0.2c-0.1-0.1-0.1-0.2-0.1-0.3c0-0.1,0-0.3,0.2-0.6c1.6-3,2.9-5.5,3.7-7.4
			c0,0,0.3-1,0.9-2.9c-0.4,0.2-0.8,0.3-1.3,0.4c-0.4,0.1-0.8,0-1.1-0.2c-0.3-0.2-0.3-0.6-0.2-1c0.2-0.7,1.2-1.3,3.2-1.8
			c0-0.1,0.1-0.1,0.2-0.2l2.1-6.5c0.1-0.4,0.2-0.8,0.4-1.2c0.1-0.4,0.3-0.7,0.3-0.9c0.1-0.2,0.2-0.4,0.2-0.7
			c0.1-0.2,0.2-0.4,0.2-0.5c0.1-0.1,0.1-0.2,0.2-0.3c0.1-0.3,0.6-0.5,1.4-0.6c0.8-0.1,1.4,0,1.8,0.4c0.2,0.1,0.3,0.4,0.3,0.8
			c0.1,0.4,0,0.9-0.2,1.4c-0.2,0.5-0.5,1-0.8,1.2c-0.3,0.3-0.5,0.5-0.6,0.8l-2.1,5.9L146.5,150.7z"/>
		<path class="st2" d="M157.2,168c-0.7,0.1-1.5,0-2.3-0.2c-0.9-0.3-1.6-0.7-2.3-1.4c-0.7-0.6-1.1-1.4-1.3-2.2
			c-0.2-0.9-0.1-1.7,0.1-2.5c0.5-1.9,1.6-3.9,3.2-5.9c1.6-2,3.3-3.8,5.1-5.4c1.8-1.6,3.3-2.6,4.5-3.1c1.1-0.5,2.3-0.9,3.4-1.1
			c1.1-0.2,2.1-0.1,3.1,0.3c0.9,0.4,1.4,1,1.5,1.6c0,0.2,0,0.3,0,0.4c0,0-0.1,0-0.3,0c-0.7-0.7-1.8-0.9-3.4-0.7
			c-1.6,0.3-3.3,1.1-5.1,2.5c-1.8,1.4-3.5,3.1-5,4.9c-1.2,1.7-2.3,3.5-3.1,5.5c-0.8,2-1.1,3.4-1,4.2c0.3,1.6,0.9,2.3,1.8,2.1
			c0.9-0.2,2.1-1.1,3.7-2.9c2.6-3.1,4.3-5.3,5.2-6.7c3.2-4.9,4.9-7.4,5.2-7.4c0.5-0.1,1.2-0.1,1.9,0.1c0.8,0.2,1.1,0.5,0.9,1
			c-1.6,3.5-2.4,6.8-2.2,9.9c0,0.4,0.1,0.9,0.2,1.5c0.1,0.6,0.4,1.1,0.8,1.4c0.8,0.6,1.6,0.5,2.6-0.3c1-0.8,2.3-2.3,4-4.4
			c1.7-2.1,2.9-4.2,3.8-6.1c0.1-0.2,0.3-0.3,0.5-0.3c0.2,0.1,0.4,0.1,0.4,0.2c0.1,0.6-0.6,2.2-2.3,4.7c-1.6,2.5-2.9,4.2-3.8,5.2
			c-1.7,1.8-3.5,2.9-5.2,3.2c-1.6,0.3-2.8-0.3-3.7-1.8c-0.2-0.5-0.4-1.1-0.5-1.7c-0.3-1.9-0.3-4,0.1-6.3c-0.2,0.1-0.8,1.1-1.9,3
			c-1.1,1.9-2.5,3.7-4.1,5.5C160.2,166.7,158.7,167.7,157.2,168z"/>
		<path class="st2" d="M184.7,153.9c-0.3,1.5-0.4,2.6-0.3,3.1c0,0.5,0.1,1.2,0.3,2c0.1,0.8,0.5,1.5,1,2.2c0.9,1,2.2,0.9,3.7-0.4
			c1.2-0.9,2.6-2.4,4.2-4.6c1.6-2.2,2.9-4.1,3.7-5.8c0.1-0.1,0.2-0.2,0.3-0.3c0.4-0.1,0.5,0.2,0.5,0.8c-0.4,1.3-1.4,2.9-2.8,5
			c-1.4,2.1-2.7,3.8-3.9,5.1c-1.2,1.3-2.5,2.1-3.9,2.3c-3.2,0.6-5.1-0.7-5.7-3.9c0-0.1,0-0.3-0.1-0.4c-0.4-3,0.3-7.8,2.1-14.3
			c1.8-6.5,3.5-11.5,5.3-15l1.5-2.8c0.4-0.6,0.9-1.4,1.7-2.4c1.4-1.9,3-3,4.8-3.4c1.8-0.3,3.1,0,4,1c0.3,0.3,0.5,0.9,0.6,1.6
			c0.1,0.7,0,1.8-0.4,3.2C198.3,135.4,192.7,144.4,184.7,153.9z M199.4,126.1c0.3-1,0.5-1.8,0.4-2.3c-0.2-0.9-0.6-1.3-1.3-1.1
			c-0.6,0.1-1.3,0.6-2.1,1.4c-2.9,3.2-5.5,8-7.7,14.3c-1.7,5.1-2.9,9.3-3.5,12.8c2.6-2.5,5.3-6.4,8.1-11.5
			C196.2,134.5,198.2,130,199.4,126.1z"/>
	</g>
</g>
</svg>
