<svg xmlns="http://www.w3.org/2000/svg" viewBox="0 0 150 150"><defs><style>.cls-1{fill:#32676d;}</style></defs><g id="Camada_4" data-name="Camada 4"><path class="cls-1" d="M148.91,19.89a3.39,3.39,0,0,0,.1-1.14c0-.15.08-.3,0-.45a3.6,3.6,0,0,0-.69-1.31s0-.11-.05-.16-.17-.07-.24-.14a3.84,3.84,0,0,0-1.84-1.1h-.12a2.71,2.71,0,0,0-.68-.09L4.62,16.35A3.7,3.7,0,0,0,2,22.65L48.28,69.77l5,61.35A3.67,3.67,0,0,0,56,134.35a3.56,3.56,0,0,0,1.07.16,3.67,3.67,0,0,0,2.9-1.4L148.36,21.5c.1-.13.06-.3.14-.44A3.4,3.4,0,0,0,148.91,19.89ZM130.19,23l-68,35.57-9.61,5L13.42,23.71ZM55.76,70.28,94,50.3l37.76-19.74L59.94,121.15Z"/></g></svg>