<svg xmlns="http://www.w3.org/2000/svg" viewBox="0 0 150 150"><defs><style>.cls-1{fill:#32676d;}</style></defs><g id="Camada_3" data-name="Camada 3"><path class="cls-1" d="M127.24,138.08a4.45,4.45,0,0,1-1.08-.14l-23.72-6.59A62.07,62.07,0,0,1,75,137.69a62.89,62.89,0,1,1,62.88-62.88,62.26,62.26,0,0,1-11.44,36.05l4.78,22.31A4.09,4.09,0,0,1,130,137,4,4,0,0,1,127.24,138.08ZM75,20a54.77,54.77,0,0,0,0,109.53,54.08,54.08,0,0,0,25.15-6.16,4.2,4.2,0,0,1,2.95-.31l18.77,5.21-3.75-17.51a4.08,4.08,0,0,1,.72-3.28A54.69,54.69,0,0,0,75,20Z"/></g></svg>