<svg xmlns="http://www.w3.org/2000/svg" viewBox="0 0 150 150"><defs><style>.cls-1{fill:#e6b5a8;}</style></defs><g id="Camada_2" data-name="Camada 2"><path class="cls-1" d="M75,139.58a8.55,8.55,0,0,1-6.28-2.65L20.83,89.54a25.33,25.33,0,0,1-2.2-2.14c-.95-1-2.46-2.81-4.52-5.45a74.85,74.85,0,0,1-5.53-8.14A52.85,52.85,0,0,1,4.12,63.48a39.53,39.53,0,0,1-2-12.13c0-12.6,3.67-22.69,10.93-30s17.3-11,29.83-11a34.24,34.24,0,0,1,11,1.91,43.16,43.16,0,0,1,10.18,5q4.44,3,7.64,5.63c1.12.92,2.2,1.86,3.27,2.84,1.06-1,2.16-1.92,3.27-2.84q3.21-2.64,7.64-5.63a43.1,43.1,0,0,1,10.17-5,34.51,34.51,0,0,1,11-1.91c12.53,0,22.57,3.69,29.83,11s10.94,17.36,10.94,30-6.31,25.55-18.74,38.3L81.22,137A8.53,8.53,0,0,1,75,139.58Z"/></g></svg>